<svg xmlns:rdf="http://www.w3.org/1999/02/22-rdf-syntax-ns#" xmlns="http://www.w3.org/2000/svg" enable-background="new 0 0 280 458" xml:space="preserve" height="458px" viewBox="0 0 280 458" width="280px" version="1.1" y="0px" x="0px" xmlns:cc="http://creativecommons.org/ns#" xmlns:dc="http://purl.org/dc/elements/1.1/"><g fill="#444"><circle cy="317" cx="211" r="30"/><path d="m167 141h-32c-2.209 0-4 1.791-4 4s1.791 4 4 4h32c2.209 0 4-1.791 4-4s-1.79-4-4-4z"/></g><path d="m211 346c-15.989 0-29-13.01-29-29s13.011-29 29-29 29 13.01 29 29-13.01 29-29 29z"/><path d="m126 141h-32c-2.209 0-4 1.791-4 4s1.791 4 4 4h32c2.209 0 4-1.791 4-4s-1.79-4-4-4z" fill="#555"/><circle cy="201" cx="15" r="7.5" fill="#E7491D"/><g fill="#6cf"><path d="m45 193c-4.418 0-8 3.582-8 8s3.582 8 8 8c1.8 0 3.455-.602 4.792-1.604l3.208 1.6-1.604-3.209c1.002-1.33 1.604-2.99 1.604-4.79 0-4.42-3.582-8-8-8zm5.501 13.24l.263.525-.525-.263c-.142-.071-.295-.105-.447-.105-.212 0-.424.067-.6.2-1.225.91-2.675 1.4-4.192 1.4-3.86 0-7-3.141-7-7s3.14-7 7-7 7 3.141 7 7c0 1.518-.486 2.967-1.404 4.191-.228.30-.264.71-.095 1.05z"/><circle cy="201" cx="45" r="1"/><circle cy="201" cx="49" r="1"/><circle cy="201" cx="41" r="1"/><path d="m80 197h-10c-1.656 0-3 1.344-3 3v2c0 1.656 1.344 3 3 3h10c1.305 0 2.402-.838 2.816-2h2.184v-1h-2v-2h2v-1h-2.184c-.414-1.16-1.511-2-2.816-2zm2 5c0 1.104-.896 2-2 2h-10c-1.104 0-2-.896-2-2v-2c0-1.104.896-2 2-2h10c.737 0 1.375.405 1.722 1h-.722c-.758 0-1.41.428-1.75 1.051-.082-.02-.161-.05-.250-.05-.553 0-1 .447-1 1s.447 1 1 1 1-.447 1-1 .447-1 1-1h1v2z"/><path d="m112.17 200.43l1.589-.449c.106-.029.177-.143.158-.25l-.104-.59c-.019-.109-.124-.19-.234-.182l-1.646.123c-.11.008-.223-.072-.256-.178-.061-.2-.13-.398-.21-.596-.042-.102-.006-.236.083-.301l1.334-.961c.089-.064.117-.193.062-.289l-.299-.518c-.055-.096-.182-.137-.282-.092l-1.499.676c-.101.046-.234.01-.302-.078-.13-.168-.268-.327-.411-.48-.075-.081-.088-.22-.025-.311l.929-1.364c.062-.091.044-.223-.041-.294l-.458-.385c-.085-.07-.217-.066-.296.012l-1.182 1.151c-.079.077-.217.089-.31.029-.178-.115-.359-.224-.545-.321-.098-.051-.156-.176-.129-.283l.405-1.594c.027-.106-.035-.225-.139-.262l-.562-.205c-.104-.037-.227.012-.275.111l-.715 1.484c-.048.1-.173.158-.281.135-.206-.045-.413-.08-.623-.107-.109-.014-.208-.111-.219-.223l-.164-1.643c-.011-.11-.109-.199-.22-.199h-.6c-.111 0-.209.089-.22.199l-.164 1.641c-.011.111-.109.209-.219.223-.208.027-.416.064-.622.11-.107.024-.232-.034-.28-.134l-.716-1.487c-.048-.1-.171-.149-.275-.112l-.563.206c-.104.038-.166.155-.139.263l.408 1.601c.027.106-.032.233-.131.282-.094.045-.187.094-.278.146s-.18.109-.267.168c-.092.061-.23.049-.309-.027l-1.183-1.154c-.079-.077-.212-.082-.296-.012l-.46.387c-.084.07-.103.202-.041.293l.929 1.364c.062.091.05.229-.025.311-.143.155-.278.315-.405.481-.067.088-.201.125-.302.079l-1.504-.679c-.101-.045-.227-.004-.282.092l-.3.52c-.055.096-.027.225.062.289l1.341.965c.09.064.126.198.083.301-.081.193-.154.391-.218.592-.033.105-.146.184-.256.176l-1.645-.123c-.11-.008-.215.074-.234.182l-.104.592c-.019.108.052.221.158.251l1.585.446c.106.029.185.145.181.254-.008.21-.006.42.005.631.006.109-.074.224-.18.254l-1.591.447c-.106.029-.177.143-.158.251l.104.591c.019.109.124.19.234.182l1.648-.123c.11-.008.223.07.256.177.061.2.13.399.21.595.042.104.006.236-.083.301l-1.335.961c-.09.064-.118.195-.062.291l.3.519c.055.096.182.137.282.091l1.5-.677c.101-.046.234-.009.301.078.13.167.268.327.411.479.075.082.088.221.025.311l-.931 1.366c-.062.091-.044.223.041.294l.459.385c.085.071.217.066.296-.011l1.183-1.153c.079-.077.217-.089.31-.029.178.115.359.223.545.32.098.052.156.177.129.283l-.406 1.596c-.027.106.035.225.139.262l.563.205c.104.037.227-.012.275-.111l.715-1.486c.048-.1.173-.158.281-.134.206.046.413.081.622.107.11.015.208.112.219.222l.165 1.644c.011.11.109.199.22.199h.6c.111 0 .209-.089.22-.199l.163-1.64c.011-.111.11-.209.219-.223.208-.027.415-.064.62-.109.108-.025.234.033.282.133l.717 1.486c.048.1.171.148.275.111l.563-.205c.104-.037.166-.155.139-.262l-.408-1.601c-.027-.106.032-.233.131-.282.094-.045.187-.094.278-.146s.18-.109.267-.168c.092-.061.23-.049.309.027l1.183 1.153c.079.077.211.082.296.011l.459-.385c.085-.071.103-.203.041-.294l-.929-1.362c-.062-.092-.049-.23.025-.312.143-.155.278-.315.405-.481.067-.088.201-.125.302-.08l1.503.678c.101.046.227.005.282-.091l.3-.519c.055-.096.027-.227-.062-.291l-1.34-.963c-.09-.064-.126-.198-.083-.301.081-.193.154-.391.218-.592.033-.105.146-.185.256-.177l1.645.123c.11.008.215-.073.234-.183l.104-.59c.019-.109-.052-.222-.158-.252l-1.583-.445c-.106-.029-.186-.145-.181-.254.008-.21.006-.42-.004-.631-.01-.15.07-.26.18-.29zm-10.87-4.12c2.354-1.86 5.767-1.729 7.94.445.597.596 1.026 1.291 1.316 2.029.041.102-.016.209-.123.238l-2.524.677c-.107.028-.23-.03-.282-.128-.132-.25-.298-.485-.508-.695-.999-1-2.53-1.138-3.685-.43-.094.059-.231.048-.309-.03l-1.839-1.839c-.08-.08-.07-.20.01-.27zm5.7 4.69c0 1.104-.896 2-2 2s-2-.896-2-2 .896-2 2-2 2 .90 2 2zm-3.97 5.44c-.029.107-.136.164-.239.123-.738-.29-1.433-.719-2.03-1.316-2.173-2.174-2.305-5.586-.445-7.94.068-.087.19-.092.269-.014l1.838 1.839c.078.078.088.215.031.309-.709 1.154-.571 2.687.429 3.686.21.21.446.376.696.508.097.053.156.176.127.282l-.69 2.52zm6.21-1.2c-1.393 1.393-3.298 1.951-5.108 1.688-.109-.016-.174-.118-.146-.225l.68-2.54c.029-.106.141-.185.251-.181.795.023 1.596-.258 2.201-.863s.886-1.406.863-2.2c-.003-.11.074-.222.181-.251l2.539-.68c.107-.029.209.035.226.145.27 1.8-.28 3.71-1.68 5.1z"/><circle cy="201" cx="105" r="1"/><path d="m135 193c-4.418 0-8 3.582-8 8s3.582 8 8 8c4.419 0 8-3.582 8-8s-3.58-8-8-8zm2.7 14.46c-.064-.23-.126-.426-.173-.484.387-.193.769-.393 1.118-.648l-.325-.148c.57-.168.981-.43.981-.43l-.583-.242.782-.549c-.426-.178-.463-.713-.464-.879v-.045c0-.293-.036-.578-.104-.852.566-.822.75-2.172.828-2.527.088-.41.238-1.207.238-1.207l-.5.031c.148-.404.236-.811.236-.811l-.524-.021c.101-.453.163-1.145.163-1.145-.352.273-1.487 1.248-2.014 1.676-.425.35-1.248.955-1.541 1.17-.266-.053-.541-.078-.822-.078-.28 0-.555.025-.819.078-.293-.215-1.116-.82-1.542-1.17-.526-.428-1.664-1.404-2.013-1.676 0 0 .061.689.163 1.145l-.526.021s.089.41.238.811l-.5-.031s.149.799.237 1.207c.08.367.263 1.707.83 2.527-.068.281-.104.559-.104.852v.045c-.002.156-.038.701-.464.879l.781.549-.58.242s.41.262.978.43l-.322.15c.347.252.722.467 1.116.646-.046.059-.107.254-.172.484-2.523-1.059-4.3-3.555-4.3-6.457 0-3.859 3.14-7 7-7s7 3.141 7 7c-.04 2.9-1.82 5.4-4.34 6.46z"/><path d="m170 194h-10c-1.104 0-2 .896-2 2v10c0 1.104.896 2 2 2h10c1.104 0 2-.896 2-2v-10c0-1.1-.90-2-2-2zm1 12c0 .551-.448 1-1 1h-10c-.552 0-1-.449-1-1v-10c0-.551.448-1 1-1h10c.552 0 1 .449 1 1v10z"/><rect height="3" width="2" y="196" x="160"/><rect height="1" width="2" y="200" x="160"/><rect height="1" width="2" y="202" x="160"/><rect height="1" width="7" y="198" x="163"/><polygon points="165.96 200 163 202.96 163 204.38 167.38 200"/><polygon points="163 205.79 163 206 164.21 206 170 200.21 170 200 168.79 200"/><polygon points="167.04 206 170 203.04 170 201.62 165.62 206"/><polygon points="163 200 163 201.55 164.55 200"/><polygon points="170 206 170 204.45 168.45 206"/><polygon points="107.79 68.5 108.5 67.793 100.71 60 108.5 52.207 107.79 51.5 100 59.293 92.207 51.5 91.5 52.207 99.293 60 91.5 67.793 92.207 68.5 100 60.707"/><path d="m25.171 63.757c1.142-1.447 1.829-3.27 1.829-5.257 0-4.694-3.806-8.5-8.5-8.5s-8.5 3.806-8.5 8.5 3.806 8.5 8.5 8.5c1.987 0 3.81-.687 5.257-1.829l4.536 4.536c.391.391 1.023.391 1.414 0s.391-1.023 0-1.414l-4.536-4.536zm-6.671 2.243c-4.136 0-7.5-3.364-7.5-7.5s3.364-7.5 7.5-7.5 7.5 3.364 7.5 7.5-3.364 7.5-7.5 7.5z"/><circle cy="60" cx="60" r="2"/><circle cy="60" cx="68" r="2"/><circle cy="60" cx="52" r="2"/><path d="m144.71 50.293c-.391-.391-1.023-.391-1.414 0l-9 9c-.391.391-.391 1.023 0 1.414l9 9c.19.195.44.293.70.293s.512-.098.707-.293c.391-.391.391-1.023 0-1.414l-8.3-8.293 8.293-8.293c.40-.391.40-1.023.01-1.414z"/><path d="m176.71 50.293c-.391-.391-1.023-.391-1.414 0s-.391 1.023 0 1.414l8.29 8.293-8.293 8.293c-.391.391-.391 1.023 0 1.414.19.195.44.293.70.293s.512-.098.707-.293l9-9c.391-.391.391-1.023 0-1.414l-9-9z"/><path d="m87.447 152.1l-20-10c-.281-.141-.613-.141-.895 0l-20 10c-.494.247-.694.848-.447 1.342s.847.696 1.342.447l19.553-9.77 19.553 9.776c.144.072.296.105.446.105.367 0 .72-.202.896-.553.247-.50.046-1.1-.448-1.35z"/><polygon points="243.71 215 247 211.71 246.29 211 243 214.29 239.71 211 239 211.71 242.29 215 239 218.29 239.71 219 243 215.71 246.29 219 247 218.29"/><path d="m256.57 161.24l5.783 2.765c.138.065.285.098.432.098.26 0 .516-.101.707-.293l8.536-8.536c.164-.164.193-.419.072-.616-.123-.198-.367-.287-.584-.211l-14.831 4.943c-.387.129-.656.48-.682.887s.19.79.56.97z"/><path d="m264 165.65l2.764 5.78c.167.349.519.568.902.568.021 0 .041-.001.062-.002.406-.025.757-.295.886-.682l4.943-14.825c.073-.22-.015-.461-.212-.583-.196-.122-.451-.093-.616.072l-8.534 8.533c-.29.29-.37.75-.19 1.13z"/><path d="m266.83 217.83c.725-.724 1.173-1.724 1.173-2.827s-.448-2.103-1.173-2.827l-.707.707c.544.543.88 1.293.88 2.12s-.337 1.577-.88 2.12l.71.71z"/><path d="m268.95 219.95c1.27-1.27 2.05-3.02 2.05-4.95s-.785-3.68-2.053-4.947l-.706.707c1.086 1.086 1.759 2.586 1.759 4.24s-.673 3.154-1.76 4.241l.71.71z"/><path d="m274 215c0-2.762-1.119-5.262-2.929-7.071l-.71.711c1.63 1.629 2.639 3.879 2.639 6.36s-1.01 4.731-2.64 6.361l.711.71c1.81-1.81 2.93-4.31 2.93-7.07z"/><path d="m254.29 269.29c-.391.391-.391 1.023 0 1.414.195.195.451.293.707.293s.512-.098.707-.293l7-7c.391-.391.391-1.023 0-1.414l-7-7c-.391-.391-1.023-.391-1.414 0s-.391 1.023 0 1.414l5.293 5.293h-11.59c-.553 0-1 .447-1 1s.447 1 1 1h11.586l-5.3 5.3z"/><path d="m236.38 207.08c-.12-.06-.25-.08-.38-.08-.26 0-.516.102-.707.293l-4.146 4.146c-.023.016-.119.056-.164.061h-4.98c-.553 0-1 .447-1 1v5c0 .553.447 1 1 1h5c.027.005.123.045.159.072l4.134 4.135c.19.20.45.30.71.30.129 0 .259-.025.383-.076.374-.154.617-.52.617-.924v-14c0-.40-.24-.77-.62-.92z"/><path d="m253 218.5h5c.027.005.123.045.159.072l4.134 4.135c.19.20.45.30.71.30.129 0 .259-.025.383-.076.374-.154.617-.52.617-.924v-14c0-.404-.243-.77-.617-.924-.12-.06-.25-.08-.38-.08-.26 0-.516.102-.707.293l-4.146 4.146c-.023.016-.119.056-.164.061h-4.98c-.553 0-1 .447-1 1v5c0 .55.45 1 1 1z"/><path d="m267.99 324.01c-1.671-1.254-3.74-2.006-5.989-2.006-5.522 0-10 4.478-10 10s4.478 10 10 10 10-4.478 10-10c0-2.249-.752-4.318-2.006-5.989l2.01-4.01-4.01 2.01zm-.49 8.49h-5v5h-1v-5h-5v-1h5v-5h1v5h5v1z"/></g><g fill="#aaa"><path d="m18.5 27c1.987 0 3.81-.687 5.257-1.829l4.536 4.536c.391.391 1.023.391 1.414 0s.391-1.023 0-1.414l-4.536-4.536c1.142-1.447 1.829-3.27 1.829-5.257 0-4.694-3.806-8.5-8.5-8.5s-8.5 3.806-8.5 8.5 3.806 8.5 8.5 8.5zm0-16c4.136 0 7.5 3.364 7.5 7.5s-3.364 7.5-7.5 7.5-7.5-3.364-7.5-7.5 3.364-7.5 7.5-7.5z"/><circle cy="20" cx="60" r="2"/><circle cy="20" cx="68" r="2"/><circle cy="20" cx="52" r="2"/><polygon points="107.79 11.5 100 19.293 92.207 11.5 91.5 12.207 99.293 20 91.5 27.793 92.207 28.5 100 20.707 107.79 28.5 108.5 27.793 100.71 20 108.5 12.207"/><path d="m144.71 10.293c-.391-.391-1.023-.391-1.414 0l-9 9c-.391.391-.391 1.023 0 1.414l9 9c.19.195.44.293.70.293s.512-.098.707-.293c.391-.391.391-1.023 0-1.414l-8.3-8.293 8.293-8.293c.40-.391.40-1.023.01-1.414z"/><path d="m176.71 10.293c-.391-.391-1.023-.391-1.414 0s-.391 1.023 0 1.414l8.29 8.293-8.293 8.293c-.391.391-.391 1.023 0 1.414.19.195.44.293.70.293s.512-.098.707-.293l9-9c.391-.391.391-1.023 0-1.414l-9-9z"/><path d="m42.447 152.1l-20-10c-.281-.141-.613-.141-.895 0l-20 10c-.494.247-.694.848-.447 1.342s.847.696 1.342.447l19.553-9.77 19.553 9.776c.144.072.296.105.446.105.367 0 .72-.202.896-.553.247-.50.046-1.1-.448-1.35z"/><polygon points="246.29 185 243 188.29 239.71 185 239 185.71 242.29 189 239 192.29 239.71 193 243 189.71 246.29 193 247 192.29 243.71 189 247 185.71"/><path d="m266.83 243.83c.725-.724 1.173-1.724 1.173-2.827s-.448-2.103-1.173-2.827l-.707.707c.544.543.88 1.293.88 2.12s-.337 1.577-.88 2.12l.71.71z"/><path d="m268.95 245.95c1.27-1.27 2.05-3.02 2.05-4.95s-.785-3.68-2.053-4.947l-.706.707c1.086 1.086 1.759 2.586 1.759 4.24s-.673 3.154-1.76 4.241l.71.71z"/><path d="m270.36 247.36l.711.71c1.81-1.81 2.929-4.31 2.929-7.071s-1.119-5.262-2.929-7.071l-.71.711c1.63 1.629 2.639 3.879 2.639 6.36s-1.01 4.73-2.64 6.36z"/><path d="m236.38 181.08c-.12-.06-.25-.08-.38-.08-.26 0-.516.102-.707.293l-4.146 4.146c-.023.016-.119.056-.164.061h-4.982c-.553 0-1 .448-1 1v5c0 .553.447 1 1 1h5c.027.005.123.045.159.072l4.134 4.135c.19.20.45.30.71.30.129 0 .259-.025.383-.076.374-.154.617-.52.617-.924v-14c0-.40-.24-.77-.62-.92z"/><path d="m253 244.5h5c.027.005.123.045.159.072l4.134 4.135c.19.20.45.30.71.30.129 0 .259-.025.383-.076.374-.154.617-.52.617-.924v-14c0-.404-.243-.77-.617-.924-.12-.06-.25-.08-.38-.08-.26 0-.516.102-.707.293l-4.146 4.146c-.023.016-.119.056-.164.061h-4.98c-.553 0-1 .447-1 1v5c0 .55.45 1 1 1z"/><path d="m272 282l-4.011 2.006c-1.671-1.254-3.74-2.006-5.989-2.006-5.522 0-10 4.478-10 10s4.478 10 10 10 10-4.478 10-10c0-2.249-.752-4.318-2.006-5.989l2.01-4.01zm-4.5 10.5h-5v5h-1v-5h-5v-1h5v-5h1v5h5v1z"/><path d="m245.1 154.65c-.123-.198-.367-.287-.584-.211l-14.831 4.943c-.387.129-.656.48-.682.887s.199.789.566.964l5.783 2.765c.138.065.285.098.432.098.26 0 .516-.101.707-.293l8.536-8.536c.15-.17.18-.42.06-.62z"/><path d="m246.35 155.91c-.196-.122-.451-.093-.616.072l-8.534 8.533c-.3.3-.378.756-.195 1.139l2.764 5.78c.167.349.519.568.902.568.021 0 .041-.001.062-.002.406-.025.757-.295.886-.682l4.943-14.825c.08-.23-.01-.47-.20-.59z"/></g><g fill="#bbb"><circle cy="438" cx="262" r="2"/><circle cy="438" cx="270" r="2"/><circle cy="438" cx="254" r="2"/></g><g fill="#fff"><path d="m15 179c4.418 0 8-3.582 8-8s-3.582-8-8-8-8 3.582-8 8 3.582 8 8 8zm0-15c3.86 0 7 3.14 7 7s-3.14 7-7 7-7-3.14-7-7 3.14-7 7-7z"/><circle cy="172" cx="15" r="1"/><circle cy="169" cx="15" r="1"/><circle cy="169" cx="18" r="1"/><circle cy="169" cx="12" r="1"/><circle cy="175" cx="15" r="1"/><path d="m23 201c0-4.418-3.582-8-8-8s-8 3.582-8 8 3.582 8 8 8 8-3.58 8-8zm-15 0c0-3.859 3.14-7 7-7s7 3.141 7 7-3.14 7-7 7-7-3.14-7-7z"/><circle cy="202" cx="15" r="1"/><circle cy="199" cx="15" r="1"/><circle cy="199" cx="18" r="1"/><circle cy="199" cx="12" r="1"/><circle cy="205" cx="15" r="1"/><path d="m45 163c-4.418 0-8 3.582-8 8s3.582 8 8 8c1.8 0 3.455-.602 4.792-1.604l3.208 1.6-1.604-3.208c1.002-1.33 1.604-2.99 1.604-4.79 0-4.42-3.582-8-8-8zm5.501 13.24l.263.525-.525-.263c-.142-.071-.295-.105-.447-.105-.212 0-.424.068-.6.2-1.225.91-2.675 1.4-4.192 1.4-3.86 0-7-3.14-7-7s3.14-7 7-7 7 3.14 7 7c0 1.517-.486 2.967-1.404 4.191-.228.31-.264.71-.095 1.05z"/><circle cy="171" cx="45" r="1"/><circle cy="171" cx="49" r="1"/><circle cy="171" cx="41" r="1"/><path d="m70 175h10c1.305 0 2.402-.837 2.816-2h2.184v-1h-2v-2h2v-1h-2.184c-.414-1.163-1.512-2-2.816-2h-10c-1.656 0-3 1.343-3 3v2c0 1.66 1.344 3 3 3zm-2-5c0-1.103.896-2 2-2h10c.737 0 1.375.405 1.722 1h-.722c-.758 0-1.41.428-1.75 1.051-.082-.02-.161-.05-.250-.05-.553 0-1 .448-1 1s.447 1 1 1 1-.448 1-1 .447-1 1-1h1v2c0 1.103-.896 2-2 2h-10c-1.104 0-2-.897-2-2v-2z"/><path d="m108.5 179.09l-.408-1.6c-.027-.107.032-.233.131-.282.094-.046.187-.094.278-.147s.18-.109.267-.167c.092-.061.23-.05.309.027l1.183 1.153c.079.077.211.082.296.011l.459-.386c.085-.071.103-.203.041-.293l-.929-1.363c-.062-.091-.049-.229.025-.311.143-.155.278-.316.405-.482.067-.088.201-.125.302-.079l1.503.678c.101.045.227.004.282-.091l.3-.519c.055-.096.027-.226-.062-.29l-1.34-.964c-.09-.064-.126-.198-.083-.3.081-.194.154-.392.218-.592.033-.105.146-.185.256-.177l1.645.123c.11.008.215-.074.234-.182l.104-.591c.019-.108-.052-.221-.158-.251l-1.583-.445c-.106-.03-.186-.145-.181-.255.008-.209.006-.42-.004-.631-.006-.11.073-.224.18-.254l1.589-.448c.106-.03.177-.143.158-.251l-.104-.59c-.019-.108-.124-.19-.234-.182l-1.646.123c-.11.008-.223-.071-.256-.177-.061-.201-.13-.399-.21-.596-.042-.102-.006-.236.083-.3l1.334-.961c.089-.064.117-.194.062-.29l-.299-.518c-.055-.096-.182-.137-.282-.091l-1.499.676c-.101.045-.234.009-.302-.078-.13-.168-.268-.328-.411-.481-.075-.081-.088-.22-.025-.311l.929-1.364c.062-.091.044-.223-.041-.293l-.458-.385c-.085-.071-.217-.066-.296.011l-1.182 1.152c-.079.077-.217.089-.31.029-.178-.115-.359-.223-.545-.321-.098-.051-.156-.177-.129-.284l.405-1.593c.027-.107-.035-.225-.139-.262l-.562-.205c-.104-.038-.227.012-.275.112l-.715 1.484c-.048.1-.173.158-.281.134-.206-.045-.413-.081-.623-.107-.109-.014-.208-.112-.219-.222l-.164-1.643c-.011-.11-.109-.199-.22-.199h-.6c-.111 0-.209.089-.22.199l-.164 1.641c-.011.11-.109.208-.219.222-.208.027-.416.064-.622.11-.107.024-.232-.034-.28-.134l-.716-1.487c-.048-.1-.171-.149-.275-.112l-.563.206c-.104.038-.166.155-.139.262l.408 1.601c.027.107-.032.233-.131.282-.094.046-.187.094-.278.147s-.18.109-.267.167c-.092.061-.23.05-.309-.027l-1.183-1.154c-.079-.077-.212-.082-.296-.011l-.46.386c-.084.071-.103.203-.041.293l.929 1.364c.062.091.05.229-.025.311-.143.155-.278.316-.405.482-.067.088-.201.125-.302.079l-1.504-.679c-.101-.045-.227-.004-.282.091l-.3.52c-.055.096-.027.226.062.29l1.341.965c.09.064.126.198.083.3-.081.194-.154.392-.218.592-.033.105-.146.184-.256.176l-1.645-.123c-.11-.008-.215.073-.234.182l-.104.591c-.019.108.052.221.158.251l1.585.446c.106.03.185.145.181.255-.008.209-.006.419.005.63.006.11-.074.224-.18.254l-1.591.448c-.106.03-.177.143-.158.251l.104.591c.019.108.124.19.234.182l1.648-.124c.11-.008.223.071.256.177.061.2.13.399.21.595.042.103.006.236-.083.301l-1.335.961c-.09.064-.118.194-.062.29l.3.519c.055.096.182.137.282.091l1.5-.677c.101-.045.234-.009.301.078.13.167.268.327.411.48.075.081.088.22.025.311l-.931 1.366c-.062.091-.044.223.041.293l.459.386c.085.071.217.066.296-.011l1.183-1.153c.079-.077.217-.089.31-.029.178.115.359.223.545.321.098.051.156.176.129.283l-.406 1.595c-.027.107.035.225.139.262l.563.205c.104.038.227-.012.275-.112l.715-1.485c.048-.1.173-.158.281-.134.206.045.413.081.622.107.11.014.208.112.219.222l.165 1.643c.011.11.109.199.22.199h.6c.111 0 .209-.089.22-.199l.163-1.64c.011-.11.11-.208.219-.222.208-.027.415-.064.62-.11.108-.024.234.034.282.133l.717 1.486c.048.1.171.149.275.112l.563-.205c.10-.04.17-.16.14-.27zm-7.2-12.78c2.354-1.86 5.767-1.728 7.94.445.597.597 1.026 1.292 1.316 2.029.041.103-.016.21-.123.239l-2.524.677c-.107.029-.23-.03-.282-.127-.132-.25-.298-.486-.508-.696-.999-1-2.53-1.138-3.685-.429-.094.058-.231.047-.309-.031l-1.839-1.838c-.08-.08-.07-.20.01-.27zm5.7 4.69c0 1.104-.896 2-2 2s-2-.896-2-2 .896-2 2-2 2 .90 2 2zm-3.97 5.44c-.029.107-.136.164-.239.123-.738-.291-1.433-.72-2.03-1.316-2.173-2.174-2.305-5.586-.445-7.941.068-.086.19-.092.269-.014l1.838 1.838c.078.078.088.215.031.309-.709 1.155-.571 2.687.429 3.686.21.21.446.376.696.508.097.052.156.175.127.282l-.69 2.52zm1.11.49c-.109-.016-.174-.119-.146-.226l.68-2.54c.029-.107.141-.185.251-.181.795.023 1.596-.257 2.201-.863.605-.605.886-1.406.863-2.2-.003-.11.074-.222.181-.25l2.539-.681c.107-.029.209.036.226.146.263 1.81-.295 3.715-1.688 5.107-1.39 1.39-3.3 1.94-5.1 1.68z"/><circle cy="171" cx="105" r="1"/><path d="m135 179c4.419 0 8-3.582 8-8s-3.581-8-8-8c-4.418 0-8 3.582-8 8s3.58 8 8 8zm0-15c3.86 0 7 3.14 7 7 0 2.903-1.777 5.398-4.3 6.457-.064-.231-.126-.427-.173-.485.387-.192.769-.391 1.118-.648l-.325-.148c.57-.168.981-.429.981-.429l-.583-.243.782-.548c-.426-.178-.463-.713-.464-.879v-.044c0-.293-.036-.579-.104-.853.566-.822.75-2.172.828-2.527.088-.411.238-1.207.238-1.207l-.5.031c.148-.405.236-.81.236-.81l-.524-.022c.101-.454.163-1.144.163-1.144-.352.273-1.487 1.247-2.014 1.676-.425.349-1.248.954-1.541 1.168-.266-.053-.541-.077-.822-.077-.28 0-.555.024-.819.077-.293-.215-1.116-.82-1.542-1.168-.526-.429-1.664-1.405-2.013-1.676 0 0 .061.688.163 1.144l-.526.022s.089.409.238.81l-.5-.031s.149.798.237 1.207c.08.367.263 1.707.83 2.527-.068.282-.104.559-.104.853v.044c-.002.156-.038.701-.464.879l.781.548-.58.243s.41.261.978.429l-.322.15c.347.252.722.467 1.116.646-.046.059-.107.254-.172.485-2.523-1.059-4.3-3.554-4.3-6.457-.04-3.86 3.1-7 6.96-7z"/><path d="m158 166v10c0 1.104.896 2 2 2h10c1.104 0 2-.896 2-2v-10c0-1.104-.896-2-2-2h-10c-1.1 0-2 .90-2 2zm13 0v10c0 .551-.448 1-1 1h-10c-.552 0-1-.449-1-1v-10c0-.551.448-1 1-1h10c.55 0 1 .45 1 1z"/><rect height="3" width="2" y="166" x="160"/><rect height="1" width="2" y="170" x="160"/><rect height="1" width="2" y="172" x="160"/><rect height="1" width="7" y="168" x="163"/><polygon points="165.96 170 163 172.96 163 174.38 167.38 170"/><polygon points="170 170.21 170 170 168.79 170 163 175.79 163 176 164.21 176"/><polygon points="167.04 176 170 173.04 170 171.62 165.62 176"/><polygon points="163 170 163 171.55 164.55 170"/><polygon points="170 176 170 174.45 168.45 176"/><path opacity=".8" d="m16.73 234.2c-.565.969-.889 2.097-.889 3.3 0 2.276 1.159 4.285 2.92 5.463-1.075-.034-2.086-.33-2.973-.821v.083c0 3.18 2.262 5.832 5.265 6.436-.55.15-1.13.23-1.729.23-.423 0-.833-.041-1.233-.117.833 2.607 3.258 4.504 6.13 4.557-2.245 1.761-5.076 2.811-8.15 2.811-.531 0-1.054-.031-1.566-.091 2.905 1.862 6.354 2.948 10.061 2.948 12.073 0 18.675-10.002 18.675-18.675 0-.284-.006-.568-.019-.85 1.282-.926 2.395-2.082 3.275-3.397-1.176.521-2.442.875-3.771 1.033 1.356-.812 2.397-2.1 2.886-3.631-1.268.752-2.672 1.298-4.168 1.592-1.195-1.275-2.903-2.072-4.791-2.072-3.625 0-6.563 2.939-6.563 6.563 0 .515.057 1.016.169 1.496-5.455-.27-10.292-2.88-13.529-6.85z"/><path opacity=".8" d="m65.435 259h12.453v-10.068h-3.389v-3.924h3.389v-2.894c0-3.358 2.05-5.187 5.046-5.187 1.436 0 2.668.106 3.028.154v3.509l-2.078.001c-1.629 0-1.944.774-1.944 1.91v2.506h3.886l-.505 3.924h-3.38v10.07h6.626c.792 0 1.435-.643 1.435-1.435v-23.131c0-.792-.642-1.435-1.435-1.435h-23.132c-.792 0-1.435.643-1.435 1.435v23.131c0 .79.642 1.43 1.435 1.43z"/><path opacity=".8" d="m110.47 237.28c.115-.054.269-.131.29-.142.478-.215 1.055-.332 1.746-.332h.002 2.815c.161 0 .292-.131.292-.291 0-.002-.034-2.415-.034-3.086v-.008c0-.551.115-1.031.317-1.435l.095-.181c-.011.003-.021.008-.032.019l-5.469 5.424c-.02.02-.03.03-.03.04z"/><path opacity=".8" d="m116.9 232.12c-.227.324-.373.738-.375 1.315 0 .327.01 1.096.018 1.781.009.687.017 1.3.017 1.305 0 .609-.495 1.108-1.108 1.108h-2.816c-.602 0-1.059.101-1.41.261-.352.158-.6.373-.789.628-.375.506-.44 1.129-.439 1.764 0 0 .006.521.131 1.525.104.778.947 6.215 1.748 7.868.312.643.52.911 1.131 1.195 1.358.581 4.466 1.229 5.923 1.415 1.453.187 2.366.577 2.909-.562.003-.003.108-.283.256-.696.474-1.431.539-2.7.539-3.618 0-.094.137-.098.137 0 0 .648-.124 2.943 1.609 3.559.684.244 2.104.459 3.546.628 1.305.149 2.251.664 2.251 4.009 0 2.037-.428 2.315-2.662 2.315-1.812 0-2.503.047-2.503-1.393 0-1.162 1.15-1.041 2.003-1.041.381 0 .104-.283.104-1.001 0-.714.447-1.128.025-1.139-2.95-.08-4.685-.003-4.685 3.685 0 3.349 1.281 3.971 5.466 3.971 3.281 0 4.439-.107 5.793-4.311.27-.831.918-3.363 1.31-7.616.248-2.689-.234-10.806-.615-12.854-.225-1.197-.937-1.787-1.58-2.019-.694-.252-2.103-.512-3.871-.72-1.423-.168-3.095-.154-4.105-.124-.123-.831-.704-1.588-1.356-1.853-1.737-.698-4.42-.529-5.109-.336-.54.14-1.15.46-1.49.94zm12.29 11.34c1.339.047 1.525 1.312 1.531 2.168-.564-.252-1.263-.411-2.023-.438-.405-.014-.796.011-1.158.069.10-.83.44-1.84 1.65-1.8z"/><path opacity=".8" d="m171.27 243h-8.466c-2.8 0-5.322 1.354-6.455 3.792-.525 1.121-.732 2.556-.398 3.927.66 2.704 3.482 4.492 6.225 4.079.297-.046.398-.142.241.136-.604 1.062-.162 2.653 1.024 3.435-.789-.058-1.627-.075-2.564.035-3.352.392-7.059 2.112-6.868 5.726.15 2.798 2.979 4.851 7.461 4.871 3.609-.013 7.008-1.155 8.436-3.711 1.496-2.679.612-5.451-1.644-7.142-1.033-.771-2.816-1.834-2.702-3.294.04-.5.396-1.022 1.098-1.435 1.236-.724 2.076-1.676 2.493-2.78.438-1.175.377-2.451-.056-3.598-.406-1.079-1.142-2.048-2.107-2.721h2.281l2.02-1.34zm-5.67 17.01c1.966 1.246 2.594 2.768 2.436 4.175-.194 1.692-1.82 3.03-4.604 3.199-2.973.181-6.974-.999-6.233-4.908.394-2.083 3.157-3.157 5.444-3.233.633-.021 1.275.032 1.911.053.32.25.67.49 1.04.72zm-1.52-6.29c-2.002.554-4.217-1.004-4.931-3.792-.778-3.06.028-5.002 1.915-5.586 2.231-.696 4.618 1.318 5.165 4.621.36 2.17-.18 4.22-2.14 4.76z"/><polygon opacity=".8" points="178 250 177 250 177 255 172 255 172 256 177 256 177 261 178 261 178 256 183 256 183 255 178 255"/><path opacity=".8" d="m225 243h-20c-1.657 0-3 1.343-3 3v19.999c0 1.657 1.343 3.001 3 3.001h20c1.657 0 3-1.344 3-3.001v-20c0-1.66-1.34-3-3-3zm-10 8c2.762 0 5 2.238 5 5 0 2.761-2.238 5-5 5s-5-2.239-5-5c0-2.76 2.24-5 5-5zm10 14c0 .551-.447.999-1 .999h-18c-.553 0-1-.448-1-.999v-11.001h2.264c-.166.64-.264 1.31-.264 2.001 0 4.418 3.582 8 8 8s8-3.582 8-8c0-.691-.098-1.361-.263-2.001h2.26v11zm0-15c0 .552-.447 1-1 1h-3c-.553 0-1-.448-1-1v-3c0-.553.447-1 1-1h3c.553 0 1 .447 1 1v3z"/><path opacity=".8" d="m30.003 287c-9.375 0-17.003 6.19-17.003 13.8 0 6.816 6.048 12.531 14.217 13.609.553.11 1.306.369 1.501.84.169.43.109 1.104.055 1.538 0 0-.196 1.197-.239 1.457-.077.431-.343 1.679 1.469.917 1.81-.762 9.79-5.767 13.353-9.863 2.466-2.702 3.644-5.444 3.644-8.488.004-7.63-7.622-13.82-16.997-13.82zm-6.655 18.32h-3.379c-.49 0-.894-.4-.894-.894v-6.755c0-.491.405-.893.894-.893.492 0 .893.401.893.893v5.864h2.486c.492 0 .892.399.892.891-.003.49-.399.89-.892.89zm3.495-.89c0 .496-.403.894-.893.894-.492 0-.892-.401-.892-.894v-6.755c0-.492.4-.894.892-.894.49 0 .893.409.893.894v6.75zm8.129 0c0 .386-.244.726-.61.849-.092.027-.186.046-.282.046-.283 0-.544-.132-.717-.357l-3.46-4.725v4.178c0 .502-.4.894-.893.894-.492 0-.893-.4-.893-.894v-6.755c0-.378.247-.719.61-.85.092-.023.188-.047.282-.047.282 0 .544.133.717.359l3.461 4.72v-4.18c0-.494.402-.893.892-.893.493 0 .893.405.893.893v6.77zm5.466-4.27c.49 0 .893.397.893.893 0 .491-.402.891-.893.891h-2.488v1.596h2.488c.49 0 .893.399.893.891 0 .499-.402.894-.893.894h-3.38c-.487 0-.89-.401-.89-.894v-3.374-.002-3.378c0-.491.403-.893.89-.893h3.38c.49 0 .893.401.893.893 0 .494-.402.892-.893.892h-2.488v1.594h2.488z"/><path opacity=".8" d="m139.41 318.75c.093.093.214.145.349.145.104 0 .203-.042.297-.113l6.89-4.652c.99.143 2.02.226 3.058.226 9.391 0 17-6.012 17-13.43 0-7.416-7.609-13.428-17-13.428-9.389 0-17 6.012-17 13.428 0 4.766 3.153 8.948 7.889 11.337l-1.602 5.978c-.08.17-.02.36.11.49z"/><path opacity=".8" d="m84.648 312.14c-.172.166-.299.357-.303.627-.002.203.104.365.22.529l4.139 4.666s.201.213.367.254c.187.043.4.049.546-.064 7.166-5.543 8.2-12.49 8.382-16.254v-12.336c0-.863-.701-1.564-1.566-1.564h-12.867c-.866-.01-1.566.69-1.566 1.55v12.838c0 .865.7 1.562 1.566 1.562h5.933c-.041 1.529-.677 3.188-1.596 4.664-1.031 1.67-3.233 3.5-3.255 3.52z"/><path opacity=".1" d="m202 182.5c4.346 0 8.498-1.357 12.029-3.926l7.747 3.874c.071.036.147.053.224.053.13 0 .258-.05.354-.146.152-.152.189-.385.094-.577l-3.874-7.747c2.57-3.532 3.927-7.684 3.927-12.029 0-11.304-9.196-20.5-20.5-20.5s-20.5 9.196-20.5 20.5 9.2 20.52 20.5 20.52zm0-39.5c10.477 0 19 8.523 19 19 0 4.121-1.317 8.055-3.811 11.378-.228.303-.264.708-.095 1.047l2.669 5.338-5.338-2.669c-.142-.071-.295-.105-.447-.105-.213 0-.424.068-.601.2-3.32 2.48-7.26 3.8-11.38 3.8-10.477 0-19-8.523-19-19s8.52-19 19-19z"/><path opacity=".1" d="m202 224.5c11.304 0 20.5-9.196 20.5-20.5 0-4.346-1.356-8.498-3.927-12.029l3.874-7.748c.096-.192.059-.425-.094-.577-.096-.096-.224-.146-.354-.146-.076 0-.152.017-.224.053l-7.747 3.874c-3.531-2.569-7.684-3.926-12.029-3.926-11.304 0-20.5 9.197-20.5 20.5s9.2 20.52 20.5 20.52zm0-39.5c4.121 0 8.056 1.318 11.378 3.811.177.132.388.201.601.201.152 0 .306-.035.447-.106l5.338-2.669-2.669 5.339c-.169.339-.133.744.095 1.048 2.48 3.32 3.8 7.26 3.8 11.38 0 10.477-8.523 19-19 19s-19-8.523-19-19 8.52-19 19-19z"/><circle cy="12.5" cx="212.5" r="5.5"/><circle cy="12.5" cx="227.5" r="5.5"/><circle cy="27.5" cx="212.5" r="5.5"/><path d="m227.5 33c3.037 0 5.5-2.462 5.5-5.5s-2.463-5.5-5.5-5.5-5.5 2.462-5.5 5.5 2.46 5.5 5.5 5.5zm0-9.5c2.206 0 4 1.794 4 4s-1.794 4-4 4-4-1.794-4-4 1.79-4 4-4z"/><path d="m220 75c3.374 0 6.478-1.127 8.983-3.008l6.02 3.008-3.008-6.017c1.88-2.505 3.01-5.609 3.01-8.983 0-8.284-6.716-15-15-15s-15 6.716-15 15 6.72 15 15 15zm7-17c1.104 0 2 .896 2 2s-.896 2-2 2-2-.896-2-2 .90-2 2-2zm-7 0c1.104 0 2 .896 2 2s-.896 2-2 2-2-.896-2-2 .90-2 2-2zm-7 0c1.104 0 2 .896 2 2s-.896 2-2 2-2-.896-2-2 .90-2 2-2z"/><path d="m267 58c.2 0 .39.038.572.093.625-.957 1.702-1.593 2.928-1.593h3.203c-.594-1.465-2.025-2.5-3.703-2.5h-20c-2.209 0-4 1.791-4 4v4c0 2.209 1.791 4 4 4h20c2.209 0 4-1.791 4-4v-3.5h-3.5c-.827 0-1.5.673-1.5 1.5 0 1.104-.896 2-2 2s-2-.896-2-2 .90-2 2-2z"/><path d="m278 62h-3.5c0 .345-.047.677-.121 1h3.62v-1z"/><path d="m267.5 60c0 .455.109.882.292 1.269.423-.265.708-.733.708-1.269 0-1.104.896-2 2-2h7.5v-1h-7.5c-1.65 0-3 1.346-3 3z"/><path d="m253 23.78l-2.03 9.377c-.042.194.034.394.194.51.159.116.374.126.546.028l8.29-4.829 8.29 4.829c.078.045.165.068.252.068h.02c.276 0 .5-.224.5-.5 0-.086-.021-.167-.06-.237l-2-9.246 7.153-6.392c.147-.132.204-.339.143-.527s-.229-.323-.425-.343l-9.545-.967-3.868-8.779c-.16-.362-.756-.362-.916 0l-3.868 8.779-9.545.967c-.196.02-.363.155-.425.343s-.005.395.143.527l7.16 6.392z"/><path d="m252 99c4.971 0 9-4.029 9-9s-4.029-9-9-9-9 4.029-9 9 4.03 9 9 9zm0-16.5c4.136 0 7.5 3.364 7.5 7.5s-3.364 7.5-7.5 7.5-7.5-3.364-7.5-7.5 3.36-7.5 7.5-7.5z"/><path d="m250.5 96h3v-4.5h1v-3.5c0-.552-.447-1-1-1h-3c-.553 0-1 .448-1 1v3.5h1v4.5z"/><path d="m251.8 86.5h.4c.578 0 1.049-.471 1.049-1.05v-.4c0-.579-.471-1.05-1.049-1.05h-.4c-.58 0-1.051.471-1.051 1.05v.4c0 .579.47 1.05 1.05 1.05z"/><path d="m271 99c4.971 0 9-4.029 9-9s-4.029-9-9-9-9 4.029-9 9 4.03 9 9 9zm0-16.5c4.136 0 7.5 3.364 7.5 7.5 0 .82-.137 1.608-.382 2.348l-8.12-3.614c-.049-.064-.1-.154-.1-.338 0-.257.188-.509.408-.617.219-.107.469-.161.748-.161.524 0 1.038.177 1.543.53l1.173-1.206c-.675-.514-1.425-.792-2.25-.835v-1.382h-1.045v1.382c-.558.032-1.046.19-1.462.474-.406.274-.816.782-.844 1.338l-3.678-1.638c1.29-2.255 3.72-3.781 6.5-3.781zm-7.12 5.151l8.12 3.615c.049.064.1.154.1.338 0 .257-.188.509-.408.617-.219.107-.469.161-.748.161-.524 0-1.038-.177-1.543-.53l-1.173 1.206c.675.514 1.425.792 2.25.835v1.382h1.045v-1.382c.558-.032 1.046-.19 1.462-.474.406-.275.816-.782.844-1.338l3.678 1.637c-1.295 2.256-3.723 3.783-6.506 3.783-4.136 0-7.5-3.364-7.5-7.5.01-.822.15-1.61.39-2.35z"/><path d="m261 109c0-4.971-4.029-9-9-9s-9 4.029-9 9 4.029 9 9 9 9-4.03 9-9zm-16.5 0c0-4.136 3.364-7.5 7.5-7.5s7.5 3.364 7.5 7.5-3.364 7.5-7.5 7.5-7.5-3.36-7.5-7.5z"/><path d="m256.5 109c0-2.761-2.014-5-4.499-5-2.015 0-3.702 1.475-4.278 3.5h-.729l1.75 1.75 1.75-1.75h-.697c.415-1.037 1.24-1.75 2.203-1.75 1.381 0 2.5 1.455 2.5 3.25s-1.119 3.25-2.5 3.25c-.963 0-1.787-.714-2.205-1.75h-2.066c.576 2.023 2.26 3.5 4.272 3.5 2.51 0 4.52-2.24 4.52-5z"/><path d="m271 100c-4.971 0-9 4.029-9 9s4.029 9 9 9 9-4.029 9-9-4.03-9-9-9zm0 16.5c-4.136 0-7.5-3.364-7.5-7.5s3.364-7.5 7.5-7.5 7.5 3.364 7.5 7.5-3.36 7.5-7.5 7.5z"/><rect height="1.5" width="7" y="106.5" x="267.5"/><rect height="1.5" width="7" y="110" x="267.5"/><path d="m268 127c-1.103 0-2 .897-2 2s.897 2 2 2 2-.897 2-2-.90-2-2-2zm0 3.5c-.827 0-1.5-.673-1.5-1.5s.673-1.5 1.5-1.5 1.5.673 1.5 1.5-.67 1.5-1.5 1.5z"/><path d="m256.98 136.53c-1.667.138-2.981 1.52-2.981 3.223v3.25h3.25c1.703 0 3.084-1.314 3.223-2.982-.457.594-1.166.982-1.972.982h-2.5v-2.501c0-.81.39-1.52.98-1.97z"/><path d="m276.71 259.29c-.20-.19-.45-.29-.71-.29s-.512.098-.707.293l-3 3c-.391.391-.391 1.023 0 1.414l3 3c.195.195.451.293.707.293s.512-.098.707-.293l3-3c.391-.391.391-1.023 0-1.414l-3-3z"/><circle cy="263" cx="265" r="1"/><circle cy="263" cx="269" r="1"/><path d="m271 365h-1v-4c0-4.411-3.589-8-8-8s-8 3.589-8 8v4h-1c-1.104 0-2 .896-2 2v12c0 1.104.896 2 2 2h18c1.104 0 2-.896 2-2v-12c0-1.1-.90-2-2-2zm-8.07 8.77c-.098.052-.182.175-.182.285v1.696c0 .414-.336.75-.75.75s-.75-.336-.75-.75v-1.696c0-.11-.084-.233-.182-.285-.64-.35-1.07-1.01-1.07-1.78 0-1.104.896-2 2-2s2 .896 2 2c0 .77-.43 1.43-1.07 1.77zm6.07-8.77h-14v-4c0-3.866 3.134-7 7-7s7 3.134 7 7v4z"/><path d="m274.5 122.01c-4.219.18-8.674 2.089-12.229 5.644-.752.752-1.409 1.555-2.014 2.379-.061-.001-.119-.001-.18-.001-3.064-.001-6.524 1.443-9.029 3.901.975-.427 2.034-.636 3.117-.636 1.261 0 2.553.284 3.775.839-.047.239.027.526.193.693l4.032 4.032c.134.133.345.207.548.207.049 0 .098-.004.146-.014 1.031 2.272 1.126 4.784.202 6.893 2.506-2.554 3.959-6.101 3.901-9.209.823-.604 1.626-1.262 2.379-2.015 3.555-3.554 5.464-8.009 5.644-12.228.02-.27-.20-.49-.48-.48zm-6.5 9.49c-1.379 0-2.5-1.121-2.5-2.5s1.121-2.5 2.5-2.5 2.5 1.121 2.5 2.5-1.12 2.5-2.5 2.5z"/></g><g fill="#ccc"><path d="m216.5 308.5c-1.654.002-2.999 1.348-2.999 3 0 .803.312 1.556.878 2.12.567.567 1.32.88 2.12.88 1.655 0 3.002-1.346 3.002-3s-1.35-3-3-3zm0 5.5c-.666 0-1.294-.261-1.767-.733-.472-.471-.731-1.098-.731-1.767 0-1.377 1.121-2.498 2.5-2.5 1.378 0 2.5 1.121 2.5 2.5s-1.12 2.5-2.5 2.5z"/><path d="m224.39 303c-5.287.226-10.869 2.617-15.324 7.074-.943.94-1.767 1.947-2.523 2.98-.077-.001-.149-.001-.227-.001-3.84-.003-8.176 1.809-11.315 4.889 1.222-.533 2.549-.797 3.907-.797 1.579 0 3.199.356 4.732 1.051-.06.301.034.66.24.87l5.054 5.054c.168.165.432.258.688.258.061 0 .122-.005.183-.018 1.292 2.85 1.41 5.998.252 8.64 3.142-3.201 4.962-7.646 4.89-11.542 1.032-.757 2.039-1.58 2.98-2.525 4.457-4.453 6.849-10.035 7.074-15.322.02-.33-.26-.61-.60-.60zm-7.89 12c-.936 0-1.814-.367-2.474-1.026-.662-.66-1.024-1.538-1.024-2.474 0-1.924 1.566-3.498 3.498-3.5 1.931 0 3.502 1.573 3.502 3.5-.01 1.93-1.58 3.5-3.51 3.5z"/><path d="m204.64 326.6h-3.135v-3.135c0-1.01.487-1.898 1.231-2.47-2.091.172-3.737 1.903-3.737 4.038v4.072h4.072c2.135 0 3.865-1.646 4.038-3.738-.56.76-1.45 1.24-2.46 1.24z"/></g><g fill="#222"><path opacity=".8" d="m151 125c3.374 0 6.478-1.127 8.983-3.008l6.02 3.01-3.008-6.017c1.88-2.506 3.008-5.609 3.008-8.983 0-8.284-6.716-15-15-15s-15 6.716-15 15 6.72 15 15 15zm7-17c1.104 0 2 .896 2 2s-.896 2-2 2-2-.896-2-2 .90-2 2-2zm-7 0c1.104 0 2 .896 2 2s-.896 2-2 2-2-.896-2-2 .90-2 2-2zm-7 0c1.104 0 2 .896 2 2s-.896 2-2 2-2-.896-2-2 .90-2 2-2z"/><circle opacity=".8" cy="339.31" cx="23.25" r="2"/><circle opacity=".8" cy="357.75" cx="18.309" r="1.999"/><circle opacity=".8" cy="357.75" cx="41.691" r="2.001"/><path opacity=".8" d="m40.69 342.52c-.957.551-1.284 1.775-.731 2.73.555.959 1.775 1.285 2.734.731.957-.553 1.283-1.774.732-2.73-.553-.96-1.775-1.29-2.735-.73z"/><path opacity=".8" d="m17.5 433.5c-.552 0-1 .447-1 1h3.5c0-.553-.448-1-1-1h-1.5z"/><circle opacity=".8" cy="102.5" cx="37.5" r="5.5"/><circle opacity=".8" cy="339.31" cx="36.751" r="2.001"/><circle opacity=".8" cy="362.69" cx="36.75" r="2.001"/><circle opacity=".8" cy="364.5" cx="30" r="2"/><circle opacity=".8" cy="362.69" cx="23.25" r="1.999"/><path opacity=".8" d="m118.92 112h-13.42c0 .345-.047.677-.121 1h13.466c.03-.33.05-.67.07-1z"/><path opacity=".8" d="m98.5 110c0 .455.109.882.292 1.269.423-.265.708-.733.708-1.269 0-1.104.896-2 2-2h17.423c-.023-.334-.044-.669-.079-1h-17.34c-1.654 0-3 1.35-3 3z"/><path opacity=".8" d="m41.5 351c.001 1.107.896 2 2.002 2 1.105 0 1.999-.895 2-1.998-.001-1.105-.895-2.001-2.003-2.001-1.104 0-2 .90-1.999 2z"/><path opacity=".8" d="m45 398c0-8.284-6.716-15-15-15s-15 6.716-15 15 6.716 15 15 15 15-6.72 15-15zm-15-9.5c1.381 0 2.5 1.119 2.5 2.5s-1.119 2.5-2.5 2.5-2.5-1.119-2.5-2.5 1.119-2.5 2.5-2.5zm-2.5 16.6v-6.709c0-1.323 1.119-2.396 2.5-2.396s2.5 1.072 2.5 2.396v6.709c0 1.323-1.119 2.396-2.5 2.396s-2.5-1.07-2.5-2.4z"/><path opacity=".8" d="m79 116h22c2.209 0 4-1.791 4-4v-3.5h-3.5c-.827 0-1.5.673-1.5 1.5 0 1.104-.896 2-2 2s-2-.896-2-2 .896-2 2-2c.2 0 .39.038.572.093.625-.957 1.702-1.593 2.928-1.593h3.203c-.594-1.465-2.025-2.5-3.703-2.5h-22c-2.209 0-4 1.791-4 4v4c0 2.21 1.791 4 4 4z"/><path opacity=".8" d="m37.5 123c3.038 0 5.5-2.462 5.5-5.5s-2.462-5.5-5.5-5.5-5.5 2.462-5.5 5.5 2.462 5.5 5.5 5.5zm0-9.5c2.206 0 4 1.794 4 4s-1.794 4-4 4-4-1.794-4-4 1.794-4 4-4z"/><path opacity=".8" d="m219 101c-3.076 0-5.79 1.546-7.413 3.901.425.713.767 1.479 1.005 2.292 1.084-2.466 3.547-4.193 6.408-4.193 3.859 0 7 3.14 7 7s-3.141 7-7 7-7-3.14-7-7c0-4.971-4.029-9-9-9s-9 4.029-9 9 4.029 9 9 9c3.076 0 5.79-1.546 7.413-3.901-.425-.713-.767-1.479-1.005-2.292-1.1 2.46-3.56 4.19-6.42 4.19-3.859 0-7-3.14-7-7s3.141-7 7-7 7 3.14 7 7c0 4.971 4.029 9 9 9s9-4.029 9-9-4.03-9-9-9z"/><path opacity=".8" d="m160 409h20c.553 0 1-.447 1-1v-10.5c0-.553-.447-1-1-1h-20c-.553 0-1 .447-1 1v10.5c0 .55.45 1 1 1zm6.5-9.75c0-.276.2-.4.447-.276l7.105 3.553c.247.124.247.323 0 .447l-7.105 3.553c-.247.124-.447 0-.447-.276v-6.99z"/><path opacity=".8" d="m180 385h-20c-1.657 0-3 1.343-3 3v20c0 1.657 1.343 3 3 3h20c1.657 0 3-1.343 3-3v-20c0-1.66-1.34-3-3-3zm-4.25 1l4 4h-5.25l-4-4h5.25zm-1.25 4.5h5.25l-4 4h-5.25l4-4zm-9.25-4.5l4 4h-5.25l-4-4h5.25zm-1.25 4.5h5.25l-4 4h-5.25l4-4zm-6-1.25l.75.75h-.75v-.75zm0 1.25h.75l-.75.75v-.75zm24 17.5c0 1.103-.897 2-2 2h-20c-1.103 0-2-.897-2-2v-12.5h24v12.5zm0-13.5h-1l1-1v1z"/><path opacity=".8" d="m154.94 353.93v10.07h6.626c.792 0 1.435-.643 1.435-1.435v-23.131c0-.792-.643-1.435-1.435-1.435h-23.131c-.792 0-1.435.643-1.435 1.435v23.131c0 .792.642 1.435 1.435 1.435h12.453v-10.068h-3.389v-3.924h3.389v-2.894c0-3.358 2.05-5.187 5.046-5.187 1.436 0 2.668.106 3.028.154v3.509l-2.078.001c-1.629 0-1.944.774-1.944 1.91v2.506h3.886l-.505 3.924h-3.4z"/><path opacity=".8" d="m224.03 383.24l-14.557 3.529c-.536.13-.972.683-.972 1.235v14.5c0 1.657-1.008 3-2.25 3h-2.25c-1.657 0-3 1.343-3 3v.5c0 1.657 1.343 3 3 3h1c2.762 0 5-2.238 5-5v-14.363c0-.553.436-1.105.972-1.235l11.557-2.803c.536-.13.972.212.972.765v10.14c0 1.657-1.008 3-2.25 3h-2.25c-1.657 0-3 1.343-3 3v.5c0 1.657 1.343 3 3 3h1c2.762 0 5-2.238 5-5v-20c0-.55-.44-.90-.97-.76z"/><path opacity=".8" d="m30 450.5c2.757 0 5-2.243 5-5s-2.243-5-5-5-5 2.243-5 5 2.243 5 5 5z"/><circle opacity=".8" cy="351" cx="16.5" r="1.999"/><path opacity=".8" d="m16 456h28c1.104 0 2-.896 2-2h-32c0 1.1.896 2 2 2z"/><path opacity=".8" d="m30 451.5c3.309 0 6-2.691 6-6s-2.691-6-6-6-6 2.691-6 6 2.691 6 6 6zm0-11.5c3.033 0 5.5 2.468 5.5 5.5s-2.467 5.5-5.5 5.5-5.5-2.468-5.5-5.5 2.467-5.5 5.5-5.5z"/><circle opacity=".8" cy="117.5" cx="22.5" r="5.5"/><circle opacity=".8" cy="102.5" cx="22.5" r="5.5"/><circle opacity=".8" cy="344.25" cx="18.308" r="2"/><circle opacity=".8" cy="337.5" cx="30" r="2"/><path opacity=".8" d="m14 453.5h32v-16h-32v16zm24.25-15c.69 0 1.25.559 1.25 1.25s-.56 1.25-1.25 1.25-1.25-.56-1.25-1.25.56-1.25 1.25-1.25zm-8.25 0c3.866 0 7 3.134 7 7s-3.134 7-7 7-7-3.134-7-7 3.134-7 7-7zm-13 14h.5v.5h-.5v-.5zm-1 0h.5v.5h-.5v-.5zm-1 0h.5v.5h-.5v-.5z"/><path opacity=".8" d="m105.61 338.48c-1.268.752-2.672 1.298-4.168 1.592-1.195-1.275-2.903-2.072-4.791-2.072-3.625 0-6.563 2.939-6.563 6.563 0 .515.057 1.016.169 1.496-5.455-.274-10.292-2.888-13.529-6.857-.565.969-.889 2.097-.889 3.3 0 2.276 1.159 4.285 2.92 5.463-1.075-.034-2.086-.33-2.973-.821v.083c0 3.18 2.262 5.832 5.265 6.436-.55.15-1.13.23-1.729.23-.423 0-.833-.041-1.233-.117.833 2.607 3.258 4.504 6.13 4.557-2.245 1.761-5.076 2.811-8.15 2.811-.531 0-1.054-.031-1.566-.091 2.905 1.862 6.354 2.948 10.061 2.948 12.073 0 18.675-10.002 18.675-18.675 0-.284-.006-.568-.019-.85 1.282-.926 2.395-2.082 3.275-3.397-1.176.521-2.442.875-3.771 1.033 1.35-.80 2.39-2.09 2.88-3.62z"/><path opacity=".8" d="m138 434h-28v17h28v-17zm-21 10.5c-1.104 0-2-.895-2-2s.896-2 2-2 2 .895 2 2-.90 2-2 2zm7 0c-1.104 0-2-.895-2-2s.896-2 2-2 2 .895 2 2-.90 2-2 2zm7 0c-1.104 0-2-.895-2-2s.896-2 2-2 2 .895 2 2-.90 2-2 2z"/><path opacity=".8" d="m85.542 410.63h.02c.276 0 .5-.225.5-.5 0-.086-.021-.167-.06-.238l-2.002-9.24 7.153-6.392c.147-.133.204-.339.143-.527s-.229-.323-.425-.344l-9.545-.967-3.868-8.779c-.16-.361-.756-.361-.916 0l-3.868 8.779-9.545.967c-.196.021-.363.155-.425.344s-.005.395.143.527l7.153 6.39-2.03 9.377c-.042.194.034.394.194.511.159.115.374.126.546.027l8.29-4.829 8.29 4.829c.078.04.165.06.252.06z"/><path opacity=".8" d="m44 435h-4c-1.104 0-2.537-.717-3.2-1.6l-.6-.801c-.663-.883-2.096-1.6-3.2-1.6h-6c-1.104 0-2.537.717-3.2 1.6l-.6.801c-.663.883-2.096 1.6-3.2 1.6h-4c-1.104 0-2 .896-2 2h32c0-1.1-.896-2-2-2zm-12.25 0h-3.5c-.69 0-1.25-.56-1.25-1.25s.56-1.25 1.25-1.25h3.5c.69 0 1.25.56 1.25 1.25s-.56 1.25-1.25 1.25z"/><path d="m223 141h-42v84h42v-84zm-1 63c0 11.045-8.954 20-20 20s-20-8.955-20-20c0-11.047 8.954-20 20-20 4.499 0 8.637 1.503 11.979 4.011l8.02-4.01-4.011 8.022c2.51 3.34 4.01 7.48 4.01 11.98zm0-22l-8.021-4.011c-3.34 2.51-7.48 4.01-11.98 4.01-11.046 0-20-8.954-20-20s8.954-20 20-20 20 8.954 20 20c0 4.499-1.504 8.637-4.011 11.979l4.01 8.02z"/><path d="m256.57 187.24l5.783 2.765c.138.065.285.098.432.098.26 0 .516-.101.707-.293l8.536-8.536c.164-.164.193-.419.072-.616-.123-.198-.367-.287-.584-.211l-14.831 4.943c-.387.129-.656.48-.682.887s.19.79.56.97z"/><path d="m264 191.65l2.764 5.78c.167.349.519.568.902.568.021 0 .041-.001.062-.002.406-.025.757-.295.886-.682l4.943-14.825c.073-.22-.015-.461-.212-.583-.196-.122-.451-.093-.616.072l-8.534 8.533c-.29.29-.37.75-.19 1.13z"/><path opacity=".8" d="m108 433.5v18c.001.827.673 1.499 1.5 1.5h10.5l-.879 3.515c-.067.269-.345.485-.621.485h-4c-.276 0-.5.224-.5.5v.5h20v-.5c0-.276-.224-.5-.5-.5h-4c-.276 0-.554-.217-.621-.485l-.88-3.52h10.5c.829 0 1.5-.672 1.5-1.5v-18c0-.828-.672-1.5-1.5-1.5h-29.01c-.82.01-1.49.68-1.49 1.5zm30.5 18h-29v-18h29v18z"/><path opacity=".8" d="m76.05 435.15c.284.474.45 1.339.45 1.892v20.517c0 .553-.167.582-.45.108-1.474-2.46-4.521-4.151-8.05-4.151-2.169 0-4.155.643-5.708 1.706-.456.312-.791.164-.791-.389v-20.518c0-.553.335-1.299.791-1.611 1.552-1.07 3.538-1.71 5.708-1.71 3.528 0 6.576 1.69 8.05 4.15z"/><path opacity=".8" d="m77.95 435.15c-.284.474-.45 1.339-.45 1.892v20.517c0 .553.167.582.45.108 1.474-2.46 4.521-4.151 8.05-4.151 2.169 0 4.155.643 5.708 1.706.456.312.791.164.791-.389v-20.518c0-.553-.335-1.299-.791-1.611-1.552-1.07-3.538-1.71-5.708-1.71-3.528 0-6.576 1.69-8.05 4.15z"/><path opacity=".8" d="m114.29 394.29c-.391.391-.391 1.023 0 1.414l9 9c.195.195.451.293.707.293s.512-.098.707-.293l9-9c.391-.391.391-1.023 0-1.414s-1.023-.391-1.414 0l-7.3 7.3v-18.59c0-.553-.447-1-1-1s-1 .447-1 1v18.586l-7.293-7.293c-.39-.40-1.03-.40-1.42-.01z"/><path opacity=".8" d="m254.29 399.23c-.391.391-.391 1.023 0 1.414l7 7c.195.195.451.293.707.293s.512-.098.707-.293l7-7c.391-.391.391-1.023 0-1.414s-1.023-.391-1.414 0l-5.3 5.29v-13.586c0-.553-.447-1-1-1s-1 .447-1 1v13.586l-5.293-5.293c-.39-.39-1.03-.39-1.42 0z" fill-rule="evenodd" clip-rule="evenodd"/><path opacity=".8" enable-background="new    " d="m137 408h-26c-1.104 0-2 .896-2 2s.896 2 2 2h26c1.104 0 2-.896 2-2s-.90-2-2-2zm0 3.5h-13.19c.42-.367.69-.899.69-1.5s-.27-1.133-.69-1.5h13.19c.827 0 1.5.673 1.5 1.5s-.67 1.5-1.5 1.5z"/><path opacity=".8" d="m272.5 410h-21c-.828 0-1.5.672-1.5 1.5s.672 1.5 1.5 1.5h21c.828 0 1.5-.672 1.5-1.5s-.67-1.5-1.5-1.5zm0 2.5h-10.389c.238-.266.389-.614.389-1s-.15-.734-.389-1h10.39c.551 0 1 .449 1 1s-.45 1-1 1z"/></g></svg>
