<svg xmlns:rdf="http://www.w3.org/1999/02/22-rdf-syntax-ns#" xmlns="http://www.w3.org/2000/svg" enable-background="new 0 0 202 583" xml:space="preserve" height="583px" viewBox="0 0 202 583" width="202px" version="1.1" y="0px" x="0px" xmlns:cc="http://creativecommons.org/ns#" xmlns:dc="http://purl.org/dc/elements/1.1/"><polygon opacity=".06" points="6 .586 .586 6 6 6"/><path d="m176.71 119.71c.391-.391.391-1.023 0-1.414l-3-3c-.20-.20-.45-.30-.71-.30s-.512.098-.707.293l-3 3c-.391.391-.391 1.023 0 1.414l3 3c.195.195.451.293.707.293s.512-.098.707-.293l3-2.99z"/><circle cy="119" cx="162" r="1"/><circle cy="119" cx="166" r="1"/><path d="m180.14 273.83l4.032 4.032c.134.133.345.207.547.207.05 0 .099-.004.146-.014 1.031 2.272 1.126 4.784.203 6.893 2.506-2.554 3.958-6.101 3.901-9.209.824-.604 1.626-1.262 2.379-2.015 3.555-3.554 5.464-8.009 5.644-12.228.012-.276-.211-.499-.487-.487-4.219.18-8.674 2.089-12.228 5.644-.753.752-1.41 1.555-2.015 2.379-.06-.001-.119-.001-.179-.001-3.064 0-6.525 1.444-9.03 3.902.974-.426 2.034-.635 3.117-.635 1.261 0 2.553.284 3.775.838-.04.26.03.55.20.71zm1.94-3.79l.16.001h.019c.318 0 .618-.151.806-.408.648-.883 1.275-1.624 1.916-2.264 3.087-3.088 7.034-4.988 10.972-5.315-.327 3.938-2.227 7.884-5.315 10.971-.642.643-1.382 1.269-2.263 1.916-.262.192-.414.5-.408.825.032 1.72-.439 3.56-1.301 5.257-.097-1.133-.395-2.276-.892-3.373-.165-.363-.494-.591-.873-.591-.04 0-.08.002-.121.008l-3.84-3.84c.035-.417-.195-.816-.583-.993-1.077-.489-2.227-.792-3.367-.892 1.63-.87 3.41-1.33 5.08-1.33z"/><path d="m190 270.5c1.378 0 2.5-1.122 2.5-2.5s-1.122-2.5-2.5-2.5-2.5 1.122-2.5 2.5 1.12 2.5 2.5 2.5zm0-4.5c1.104 0 2 .896 2 2s-.896 2-2 2-2-.896-2-2 .90-2 2-2z"/><path d="m180.5 280h-2.5v-2.5c0-.805.389-1.515.982-1.972-1.667.138-2.981 1.52-2.981 3.223v3.25h3.25c1.703 0 3.084-1.314 3.223-2.982-.45.59-1.16.98-1.97.98z"/><path d="m48 249c-26.51 0-48 21.49-48 48s21.49 48 48 48c10.807 0 20.778-3.573 28.8-9.6l19.2 9.6-9.6-19.2c6.026-8.022 9.6-17.994 9.6-28.8 0-26.51-21.49-48-48-48z"/><path opacity=".1" d="m131 260c-18.196 0-33 14.804-33 33s14.804 33 33 33c6.999 0 13.658-2.153 19.301-6.231l12.252 6.126c.142.071.295.105.447.105.26 0 .516-.101.708-.293.304-.304.38-.769.188-1.154l-6.126-12.252c4.08-5.65 6.23-12.31 6.23-19.31 0-18.2-14.8-33-33-33zm25.15 51.13c-.436.604-.501 1.4-.168 2.066l4.785 9.569-9.569-4.785c-.283-.141-.589-.211-.895-.211-.413 0-.824.128-1.172.379-5.3 3.83-11.57 5.85-18.13 5.85-17.093 0-31-13.907-31-31s13.907-31 31-31 31 13.907 31 31c0 6.56-2.02 12.83-5.85 18.13z"/><path opacity=".1" d="m163.9 329.45c.192-.385.117-.85-.188-1.154-.19-.20-.45-.30-.71-.30-.151 0-.305.035-.447.105l-12.252 6.126c-5.64-4.08-12.3-6.23-19.3-6.23-18.196 0-33 14.804-33 33s14.804 33 33 33 33-14.804 33-33c0-6.999-2.153-13.658-6.231-19.301l6.13-12.25zm-1.9 31.55c0 17.093-13.907 31-31 31s-31-13.907-31-31 13.907-31 31-31c6.563 0 12.833 2.024 18.129 5.853.348.251.759.379 1.172.379.305 0 .611-.07.895-.211l9.569-4.785-4.785 9.569c-.333.667-.268 1.462.168 2.066 3.83 5.29 5.85 11.56 5.85 18.12z"/><path d="m193 34c4.971 0 9-4.029 9-9s-4.029-9-9-9-9 4.029-9 9 4.03 9 9 9zm0-16.5c4.136 0 7.5 3.364 7.5 7.5s-3.364 7.5-7.5 7.5-7.5-3.364-7.5-7.5 3.36-7.5 7.5-7.5z"/><path d="m191.5 31h3v-4.5h1v-3.5c0-.552-.448-1-1-1h-3c-.552 0-1 .448-1 1v3.5h1v4.5z"/><path d="m192.8 21.5h.4c.579 0 1.05-.471 1.05-1.05v-.4c0-.579-.471-1.05-1.05-1.05h-.4c-.579 0-1.05.471-1.05 1.05v.4c0 .579.47 1.05 1.05 1.05z"/><path d="m193 35c-4.971 0-9 4.029-9 9s4.029 9 9 9 9-4.029 9-9-4.03-9-9-9zm0 16.5c-4.136 0-7.5-3.364-7.5-7.5 0-.821.137-1.609.382-2.349l8.12 3.615c.049.064.101.154.101.338 0 .257-.189.509-.409.617-.219.107-.469.161-.748.161-.525 0-1.039-.177-1.543-.53l-1.173 1.206c.675.514 1.425.792 2.25.835v1.382h1.045v-1.382c.558-.032 1.045-.19 1.462-.474.405-.275.816-.782.843-1.338l3.678 1.637c-1.29 2.255-3.72 3.782-6.5 3.782zm7.12-5.152l-8.12-3.614c-.049-.064-.1-.154-.1-.338 0-.257.189-.509.409-.617.219-.107.469-.161.748-.161.525 0 1.039.177 1.543.53l1.173-1.206c-.675-.514-1.425-.792-2.25-.835v-1.382h-1.045v1.382c-.558.032-1.045.19-1.462.474-.405.274-.816.782-.843 1.338l-3.678-1.638c1.294-2.256 3.723-3.783 6.505-3.783 4.136 0 7.5 3.364 7.5 7.5 0 .822-.14 1.61-.38 2.35z"/><path d="m193 54c-4.971 0-9 4.029-9 9s4.029 9 9 9 9-4.029 9-9-4.03-9-9-9zm0 16.5c-4.136 0-7.5-3.364-7.5-7.5s3.364-7.5 7.5-7.5 7.5 3.364 7.5 7.5-3.36 7.5-7.5 7.5z"/><path d="m193 58c-2.014 0-3.703 1.475-4.278 3.5h-.729l1.75 1.75 1.75-1.75h-.698c.416-1.037 1.241-1.75 2.204-1.75 1.381 0 2.5 1.455 2.5 3.25s-1.119 3.25-2.5 3.25c-.962 0-1.788-.714-2.206-1.75h-2.065c.576 2.023 2.259 3.5 4.272 3.5 2.485 0 4.499-2.239 4.499-5s-2-5-4.49-5z"/><path d="m193 73c-4.971 0-9 4.029-9 9s4.029 9 9 9 9-4.029 9-9-4.03-9-9-9zm0 16.5c-4.136 0-7.5-3.364-7.5-7.5s3.364-7.5 7.5-7.5 7.5 3.364 7.5 7.5-3.36 7.5-7.5 7.5z"/><rect y="79.5" x="189.5" height="1.5" width="7"/><rect y="83" x="189.5" height="1.5" width="7"/><path d="m201 386h-1v-3c0-3.86-3.14-7-7-7s-7 3.14-7 7v3h-1c-.552 0-1 .448-1 1v11c0 .552.448 1 1 1h16c.552 0 1-.448 1-1v-11c0-.55-.45-1-1-1zm-7.32 6.83c-.099.05-.183.168-.183.279v1.392c0 .276-.224.5-.5.5s-.5-.224-.5-.5v-1.392c0-.111-.084-.229-.183-.279-.484-.248-.817-.748-.817-1.329 0-.829.671-1.5 1.5-1.5s1.5.671 1.5 1.5c0 .58-.33 1.08-.82 1.33zm5.32-6.83h-12v-3c0-3.313 2.687-6 6-6s6 2.687 6 6v3z"/><circle cy="61" cx="77" r="7.5" fill="#E7491D"/><g fill="#6cf"><path d="m107 53c-4.418 0-8 3.582-8 8s3.582 8 8 8c1.8 0 3.455-.602 4.792-1.604l3.21 1.604-1.604-3.208c1-1.337 1.6-2.992 1.6-4.792 0-4.418-3.58-8-8-8zm5.5 13.239l.263.525-.525-.263c-.142-.071-.295-.105-.447-.105-.212 0-.424.068-.6.2-1.22.918-2.67 1.404-4.19 1.404-3.86 0-7-3.14-7-7s3.14-7 7-7 7 3.14 7 7c0 1.517-.486 2.967-1.404 4.191-.23.304-.27.709-.10 1.048z"/><circle cy="61" cx="107" r="1"/><circle cy="61" cx="111" r="1"/><circle cy="61" cx="103" r="1"/><path d="m142 57h-10c-1.657 0-3 1.343-3 3v2c0 1.657 1.343 3 3 3h10c1.304 0 2.403-.837 2.816-2h2.18v-1h-2v-2h2v-1h-2.184c-.42-1.163-1.52-2-2.82-2zm2 5c0 1.103-.897 2-2 2h-10c-1.103 0-2-.897-2-2v-2c0-1.103.897-2 2-2h10c.737 0 1.375.405 1.722 1h-.72c-.758 0-1.41.428-1.75 1.051-.08-.022-.16-.051-.25-.051-.552 0-1 .448-1 1s.448 1 1 1 1-.448 1-1 .448-1 1-1h1v2z"/><path d="m174.91 65.413c.162-.357.1-.776-.158-1.072l-7-8c-.19-.216-.46-.341-.75-.341s-.562.125-.752.341l-7 8c-.258.295-.32.714-.158 1.072s.52.587.91.587h14c.39 0 .75-.229.91-.587zm-7.91-8.413l7 8h-14l7-8z"/><path d="m176.71 84.293l-7-7c-.391-.391-1.023-.391-1.414 0s-.391 1.023 0 1.414l6.29 6.293-6.293 6.293c-.391.391-.391 1.023 0 1.414.19.195.44.293.70.293s.512-.098.707-.293l7-7c.39-.391.39-1.023 0-1.414z"/></g><g fill="#666"><path d="m52.292 37.707c.391.391 1.024.391 1.415 0s.391-1.024 0-1.415l-2.82-2.82c.698-.980 1.113-2.177 1.113-3.472 0-3.313-2.687-6-6-6s-6 2.687-6 6 2.687 6 6 6c1.295 0 2.492-.415 3.473-1.113l2.819 2.82zm-11.292-7.707c0-2.757 2.243-5 5-5s5 2.243 5 5-2.243 5-5 5-5-2.243-5-5z"/><path d="m131 15c3.866 0 7-3.134 7-7s-3.134-7-7-7-7 3.134-7 7 3.13 7 7 7zm0-13c3.309 0 6 2.691 6 6s-2.691 6-6 6-6-2.691-6-6 2.69-6 6-6z"/><circle cy="5" cx="131" r="1"/><path d="m131 12c.552 0 1-.448 1-1v-3c0-.552-.448-1-1-1s-1 .448-1 1v3c0 .552.45 1 1 1z"/><path d="m19.293 106.71c.195.19.451.29.707.29s.512-.098.707-.293c.391-.391.391-1.023 0-1.414l-8.293-8.3h17.586c.552 0 1-.448 1-1s-.448-1-1-1h-17.586l8.293-8.293c.391-.391.391-1.023 0-1.414s-1.023-.391-1.414 0l-10 10c-.391.391-.391 1.023 0 1.414l10 10.003z"/><path d="m110.71 95.293l-10-10c-.20-.195-.45-.293-.71-.293s-.512.098-.707.293c-.391.391-.391 1.023 0 1.414l8.297 8.293h-17.59c-.552 0-1 .448-1 1s.448 1 1 1h17.586l-8.293 8.293c-.391.391-.391 1.023 0 1.414s1.023.391 1.414 0l10-10c.39-.384.39-1.016 0-1.407z"/><polygon points="9.707 37 15 31.707 20.293 37 21 36.293 15.707 31 21 25.707 20.293 25 15 30.293 9.707 25 9 25.707 14.293 31 9 36.293"/><polygon points="191 108 192 108 192 103 197 103 197 102 192 102 192 97 191 97 191 102 186 102 186 103 191 103"/><polygon points="187.21 151.5 191.5 147.21 195.79 151.5 196.5 150.79 192.21 146.5 196.5 142.21 195.79 141.5 191.5 145.79 187.21 141.5 186.5 142.21 190.79 146.5 186.5 150.79"/><path d="m17.079 184.04c-3.064 0-6.525 1.444-9.03 3.902.974-.426 2.034-.635 3.117-.635 1.261 0 2.553.284 3.775.838-.046.239.027.526.194.693l4.032 4.032c.134.133.345.207.547.207.05 0 .099-.004.146-.014 1.031 2.272 1.126 4.784.203 6.893 2.506-2.554 3.958-6.101 3.901-9.209.824-.604 1.626-1.262 2.379-2.015 3.555-3.554 5.464-8.009 5.644-12.228.012-.276-.211-.499-.487-.487-4.219.18-8.674 2.089-12.228 5.644-.753.752-1.41 1.555-2.015 2.379-.059.02-.119.02-.178.02zm13.872-6.99c-.327 3.938-2.227 7.884-5.315 10.971-.642.643-1.382 1.269-2.263 1.916-.262.192-.414.5-.408.825.032 1.72-.439 3.56-1.301 5.257-.097-1.133-.395-2.276-.892-3.373-.165-.363-.494-.591-.873-.591-.04 0-.08.002-.121.008l-3.84-3.84c.035-.417-.195-.816-.583-.993-1.077-.489-2.227-.792-3.367-.892 1.644-.833 3.423-1.302 5.091-1.302l.16.001h.019c.318 0 .618-.151.806-.408.648-.883 1.275-1.624 1.916-2.264 3.086-3.1 7.033-5 10.971-5.33z"/><path d="m25 185.5c1.378 0 2.5-1.122 2.5-2.5s-1.122-2.5-2.5-2.5-2.5 1.122-2.5 2.5 1.122 2.5 2.5 2.5zm0-4.5c1.104 0 2 .896 2 2s-.896 2-2 2-2-.896-2-2 .896-2 2-2z"/><path d="m15.501 195h-2.501v-2.5c0-.805.389-1.515.982-1.972-1.667.138-2.981 1.52-2.981 3.223v3.25h3.25c1.703 0 3.084-1.314 3.223-2.982-.458.59-1.168.98-1.973.98z"/><path d="m61 180c-4.418 0-8 3.582-8 8s3.582 8 8 8 8-3.582 8-8-3.582-8-8-8zm-2.479 14.54c-2.032-.772-3.679-2.476-4.283-4.731-.604-2.256-.03-4.555 1.344-6.24.07-.085.192-.09.271-.012l3.284 3.284c.078.078.095.219.049.319-.189.41-.243.885-.117 1.355.125.47.409.854.777 1.114.09.064.146.194.117.301l-1.202 4.486c-.029.10-.136.16-.240.12zm9.38-7.67c.574 3.503-1.589 6.95-5.089 7.888-.99.266-1.987.296-2.938.139-.109-.018-.173-.122-.144-.229l1.202-4.486c.029-.107.141-.191.251-.199.111-.008.223-.024.334-.054.832-.223 1.393-.939 1.467-1.75.01-.11.095-.222.202-.251l4.486-1.203c.107-.03.211.03.229.14zm-7.901 1.13c0-.551.449-1 1-1s1 .449 1 1-.449 1-1 1-1-.45-1-1zm7.413-2.24l-4.486 1.203c-.107.029-.236-.026-.3-.117-.469-.664-1.313-1.003-2.144-.78-.112.03-.216.071-.316.12-.1.048-.239.031-.317-.047l-3.285-3.284c-.078-.078-.075-.2.01-.27.745-.612 1.624-1.083 2.614-1.349 3.5-.938 7.096.965 8.351 4.285.038.11-.020.21-.127.24z"/><path d="m73.806 187.47l-1.651-.275c-.109-.018-.204-.123-.214-.232-.025-.266-.058-.53-.101-.791-.018-.109.047-.233.147-.279l1.52-.692c.101-.046.159-.169.13-.276l-.155-.577c-.028-.107-.141-.185-.251-.174l-1.666.161c-.11.011-.229-.064-.267-.167-.093-.25-.195-.494-.306-.734-.046-.1-.016-.238.069-.308l1.295-1.067c.085-.07.109-.205.054-.3l-.3-.518c-.055-.096-.184-.142-.288-.103l-1.562.585c-.104.039-.238-.003-.302-.093-.155-.216-.318-.425-.488-.628-.071-.085-.077-.226-.013-.315l.974-1.364c.064-.09.053-.226-.025-.304l-.424-.423c-.078-.078-.214-.089-.304-.025l-1.363.973c-.09.064-.231.058-.316-.013-.203-.169-.412-.333-.627-.487-.09-.064-.133-.199-.094-.303l.585-1.563c.039-.104-.007-.232-.103-.287l-.52-.299c-.096-.055-.23-.03-.3.055l-1.064 1.293c-.07.085-.208.115-.308.069-.24-.11-.483-.212-.732-.305-.103-.039-.18-.158-.169-.268l.162-1.667c.01-.11-.067-.222-.174-.25l-.578-.154c-.107-.028-.23.03-.276.131l-.69 1.518c-.046.101-.17.166-.279.147-.261-.043-.524-.077-.791-.101-.11-.01-.214-.105-.232-.214l-.275-1.648c-.019-.13-.123-.22-.234-.22h-.6c-.111 0-.215.088-.233.197l-.275 1.648c-.018.109-.123.204-.232.214-.266.024-.53.058-.79.101-.109.018-.233-.047-.279-.147l-.689-1.518c-.046-.101-.169-.159-.276-.13l-.579.155c-.107.029-.185.141-.174.251l.162 1.664c.01.11-.064.229-.168.267-.249.093-.494.195-.734.306-.101.046-.238.016-.308-.069l-1.064-1.293c-.07-.085-.205-.109-.3-.054l-.52.3c-.096.055-.142.184-.103.288l.584 1.562c.039.104-.004.238-.094.303-.215.155-.424.318-.627.487-.084.071-.225.077-.315.013l-1.362-.974c-.09-.064-.226-.053-.304.025l-.424.424c-.078.078-.089.214-.025.304l.973 1.363c.064.09.057.231-.013.316-.169.203-.333.412-.487.626-.064.09-.199.133-.303.094l-1.562-.585c-.104-.039-.232.007-.288.103l-.3.52c-.055.096-.031.23.054.3l1.293 1.065c.085.07.115.208.069.308-.11.24-.212.484-.305.732-.039.104-.158.18-.268.169l-1.666-.162c-.11-.011-.222.067-.251.174l-.154.58c-.029.107.03.23.13.276l1.518.691c.101.046.166.17.147.279-.043.26-.077.523-.101.79-.01.11-.105.214-.214.232l-1.65.275c-.109.018-.197.122-.197.233l.001.599c0 .111.088.215.197.233l1.649.276c.109.018.204.122.214.232.024.266.058.528.101.788.018.109-.046.235-.147.281l-1.52.69c-.101.046-.159.169-.13.276l.156.578c.028.107.141.185.251.174l1.666-.161c.11-.01.229.065.268.169.093.248.194.491.304.73.046.1.016.239-.069.309l-1.295 1.066c-.085.07-.109.205-.054.3l.3.518c.055.096.184.142.288.104l1.563-.585c.104-.039.239.004.303.094.154.215.317.423.487.626.071.085.077.225.013.315l-.975 1.365c-.064.09-.053.226.025.304l.424.423c.078.078.214.089.304.025l1.365-.974c.09-.064.231-.058.315.013.203.169.412.332.627.487.089.064.132.199.093.302l-.586 1.564c-.039.104.007.232.103.287l.52.3c.096.055.23.03.3-.055l1.067-1.295c.07-.085.207-.115.308-.069.239.11.483.211.731.304.103.039.179.158.168.268l-.162 1.668c-.011.11.067.222.174.25l.579.155c.107.028.23-.03.276-.131l.692-1.52c.046-.101.17-.166.279-.147.26.043.523.076.789.101.11.01.213.105.231.214l.275 1.653c.018.109.122.197.233.197h.6c.111 0 .215-.089.233-.198l.276-1.651c.018-.109.122-.204.232-.214.265-.024.527-.058.787-.101.109-.018.235.047.281.147l.691 1.522c.046.101.169.159.276.13l.579-.156c.106-.029.184-.142.174-.251l-.161-1.667c-.01-.11.065-.229.169-.268.248-.093.491-.194.73-.304.1-.046.239-.016.309.069l1.067 1.297c.07.085.205.109.3.054l.519-.3c.095-.055.142-.184.103-.288l-.585-1.564c-.039-.104.004-.238.094-.303.215-.155.424-.318.627-.487.085-.071.225-.077.315-.013l1.366.976c.09.064.226.053.304-.025l.423-.424c.078-.078.089-.214.025-.304l-.974-1.365c-.064-.09-.058-.231.013-.316.169-.203.333-.412.487-.626.064-.089.199-.132.303-.093l1.565.586c.104.039.232-.007.287-.103l.299-.519c.055-.096.03-.23-.055-.3l-1.295-1.067c-.085-.07-.115-.208-.069-.308.11-.24.212-.483.305-.731.039-.104.158-.18.268-.169l1.668.161c.11.011.222-.067.25-.174l.154-.578c.028-.107-.03-.23-.131-.276l-1.52-.691c-.101-.046-.166-.17-.147-.279.043-.26.077-.524.101-.79.01-.11.105-.214.214-.232l1.652-.276c.109-.018.197-.122.197-.233l-.001-.598c.001-.11-.087-.21-.196-.23zm-12.806 9.53c-4.971 0-9-4.029-9-9s4.029-9 9-9 9 4.029 9 9-4.029 9-9 9z"/><polygon points="107.79 179.5 100 187.29 92.207 179.5 91.5 180.21 99.293 188 91.5 195.79 92.207 196.5 100 188.71 107.79 196.5 108.5 195.79 100.71 188 108.5 180.21"/><path d="m138.95 223.04l6.364-19.092c.12-.359.026-.755-.242-1.023s-.664-.361-1.023-.242l-19.092 6.364c-.387.129-.657.479-.682.887-.019.292.091.57.291.769.079.079.172.146.276.195l8.291 3.966 3.966 8.291c.05.104.117.197.195.276.199.199.478.309.769.291.40-.03.75-.30.88-.69zm-13.68-13.04l18.031-6.01-9.899 9.899-8.13-3.89zm8.84 4.6l9.899-9.899-6.01 18.03-3.89-8.13z"/><path d="m164.38 174.08c-.12-.06-.25-.08-.38-.08-.26 0-.516.102-.707.293l-4.646 4.646c-.023.016-.119.056-.164.061h-5.48c-.552 0-1 .448-1 1v6c0 .552.448 1 1 1h5.5c.028.005.124.044.159.072l4.634 4.635c.19.20.45.30.71.30.129 0 .259-.025.383-.076.374-.155.617-.52.617-.924v-16c0-.40-.24-.77-.62-.92zm-.38 16.92l-4.646-4.646c-.195-.195-.577-.354-.854-.354h-5.5v-6h5.5c.276 0 .658-.158.854-.354l4.65-4.65v16z"/><polygon points="177.29 178 173 182.29 168.71 178 168 178.71 172.29 183 168 187.29 168.71 188 173 183.71 177.29 188 178 187.29 173.71 183 178 178.71"/><path d="m134.38 234.08c-.12-.06-.25-.08-.38-.08-.26 0-.516.102-.707.293l-4.646 4.646c-.023.016-.119.056-.164.061h-5.48c-.552 0-1 .448-1 1v6c0 .552.448 1 1 1h5.5c.028.005.124.044.159.072l4.634 4.635c.19.20.45.30.71.30.129 0 .259-.025.383-.076.374-.155.617-.52.617-.924v-16c0-.40-.24-.77-.62-.92zm-.38 16.92l-4.646-4.646c-.195-.195-.577-.354-.854-.354h-5.5v-6h5.5c.276 0 .658-.158.854-.354l4.65-4.65v16z"/><path d="m143.48 234.52c2.173 2.173 3.519 5.173 3.519 8.481s-1.346 6.309-3.519 8.481l.711.711c2.35-2.35 3.81-5.6 3.81-9.19s-1.455-6.84-3.808-9.192l-.71.71z"/><path d="m141.36 236.64l-.707.707c1.448 1.449 2.346 3.449 2.346 5.654s-.897 4.206-2.346 5.654l.707.707c1.63-1.629 2.639-3.879 2.639-6.361s-1.01-4.73-2.64-6.36z"/><path d="m137.83 240.17c.724.725 1.173 1.725 1.173 2.827s-.449 2.103-1.173 2.827l.707.707c.906-.905 1.466-2.155 1.466-3.534s-.561-2.628-1.466-3.534l-.71.69z"/><path d="m192 330c-4.418 0-8 3.582-8 8s3.582 8 8 8c1.8 0 3.455-.602 4.792-1.604l3.21 1.6-1.604-3.208c1-1.33 1.6-2.99 1.6-4.79 0-4.42-3.58-8-8-8zm-4 9c-.552 0-1-.448-1-1s.448-1 1-1 1 .448 1 1-.45 1-1 1zm4 0c-.552 0-1-.448-1-1s.448-1 1-1 1 .448 1 1-.45 1-1 1zm4 0c-.552 0-1-.448-1-1s.448-1 1-1 1 .448 1 1-.45 1-1 1z"/><path d="m191.92 295.71h-.998v4.577h.998c1.465 0 2.438-.823 2.438-2.276v-.025c0-1.43-.97-2.27-2.44-2.27z"/><path d="m192 289c-4.932 0-8.929 4.03-8.929 9 0 1.333.289 2.596.805 3.734l-1.48 3.653 3.832-.523c1.557 1.332 3.571 2.136 5.773 2.136 4.931 0 8.929-4.029 8.929-9 0-4.97-4-9-8.93-9zm4.88 8.97c0 2.597-1.857 4.526-5.04 4.526h-3.36v-9h3.411c3.158 0 4.989 1.852 4.989 4.449v.02z"/><path d="m189.47 214.94l-1.833 3.761c-.093.192-.055.422.096.573.096.096.224.146.354.146.074 0 .149-.017.219-.05l3.761-1.833c.249-.121.608-.377.803-.573l7.839-7.425c.391-.391.391-1.023 0-1.414l-1.414-1.414c-.391-.391-1.023-.391-1.414 0l-7.839 7.425c-.21.19-.46.55-.58.80zm2.3 1.62l-2.598 1.266 1.266-2.598 1.33 1.33z"/><path d="m5.617 133.64c1.341.86 2.933 1.36 4.644 1.36 5.572 0 8.619-4.616 8.619-8.619 0-.131-.003-.262-.009-.392.592-.427 1.105-.961 1.512-1.568-.543.241-1.127.404-1.74.477.626-.375 1.106-.969 1.332-1.676-.585.347-1.233.599-1.924.735-.552-.589-1.34-.957-2.211-.957-1.673 0-3.029 1.356-3.029 3.029 0 .237.026.469.078.69-2.518-.126-4.75-1.333-6.244-3.165-.261.447-.41.968-.41 1.523 0 1.051.535 1.978 1.348 2.521-.496-.016-.963-.152-1.372-.379v.038c0 1.468 1.044 2.692 2.43 2.97-.254.069-.521.106-.798.106-.195 0-.385-.019-.569-.054.385 1.204 1.504 2.079 2.829 2.104-1.036.812-2.343 1.297-3.762 1.297-.246-.01-.487-.02-.724-.05z"/><path d="m44.338 123h-10.676c-.366 0-.662.296-.662.662v10.676c0 .366.296.662.662.662h5.748v-4.647h-1.564v-1.811h1.564v-1.335c0-1.55.946-2.394 2.329-2.394.663 0 1.231.049 1.397.071v1.62h-.959c-.752 0-.897.357-.897.882v1.156h1.793l-.233 1.811h-1.56v4.65h3.058c.366 0 .662-.296.662-.662v-10.676c0-.36-.296-.66-.662-.66z"/><path d="m62.185 129.98h2.596c-.018.668-.296 1.395-.698 2.041-.452.726-1.415 1.529-1.424 1.537-.075.073-.131.157-.132.275-.001.089.045.159.096.231l1.811 2.042s.088.093.161.11c.082.02.175.022.239-.028 3.135-2.424 3.588-5.464 3.667-7.11v-5.398c0-.378-.306-.685-.685-.685h-5.63c-.379 0-.685.306-.685.685v5.616c-.001.38.305.68.684.68z"/><path d="m86.313 124.71h1.314c.075 0 .136-.061.136-.136 0 0-.016-1.127-.016-1.44v-.004c0-.257.054-.481.148-.669l.045-.084c-.004 0-.009.003-.015.008l-2.553 2.532c-.005.004-.008.009-.009.015.052-.026.125-.062.135-.066.223-.10.492-.16.815-.16z"/><path d="m93.145 132.43c-1.376-.038-2.186-.001-2.186 1.72 0 1.562.598 1.853 2.552 1.853 1.531 0 2.071-.051 2.704-2.012.125-.388.427-1.569.61-3.554.116-1.255-.108-5.042-.287-5.998-.104-.558-.436-.834-.737-.943-.324-.117-.98-.238-1.806-.335-.665-.078-1.445-.072-1.917-.057-.057-.388-.329-.742-.633-.865-.811-.326-2.062-.247-2.384-.157-.255.071-.538.217-.696.443-.105.149-.173.343-.174.613 0 .152.004.511.008.831.004.321.008.607.008.609 0 .285-.231.517-.517.518h-1.314c-.28 0-.495.047-.659.121-.164.075-.279.175-.367.293-.176.236-.207.526-.206.823 0 0 .002.242.061.712.048.362.442 2.899.816 3.67.145.3.241.426.526.558.635.272 2.085.574 2.765.661.678.087 1.104.269 1.358-.262.001-.002.051-.133.119-.325.22-.667.251-1.26.251-1.688 0-.043.064-.045.064 0 0 .303-.058 1.374.751 1.661.319.114.981.214 1.655.293.609.07 1.05.31 1.05 1.871 0 .95-.2 1.081-1.243 1.081-.845 0-1.167.021-1.167-.65 0-.543.537-.486.935-.486.178 0 .049-.132.049-.467 0-.32.208-.51.011-.51zm.723-3.81c-.189-.006-.372.006-.541.033.047-.386.207-.859.771-.839.625.021.712.611.714 1.011-.263-.11-.589-.18-.944-.20z"/><path d="m118.68 123h-3.907c-1.292 0-2.457.625-2.98 1.75-.241.519-.337 1.18-.183 1.813.305 1.248 1.607 2.073 2.872 1.882.138-.021.184-.065.111.063-.279.49-.075 1.225.473 1.585-.364-.026-.75-.034-1.184.017-1.546.181-3.258.975-3.169 2.643.069 1.291 1.374 2.239 3.443 2.248 1.666-.006 3.234-.533 3.893-1.713.69-1.236.283-2.516-.759-3.296-.476-.356-1.299-.847-1.247-1.521.018-.231.182-.472.506-.662.57-.334.958-.774 1.15-1.284.203-.542.175-1.13-.025-1.66-.188-.498-.528-.945-.972-1.255h1.052l.94-.60zm-2.62 7.85c.908.575 1.197 1.277 1.124 1.926-.089.782-.839 1.398-2.125 1.477-1.372.083-3.219-.46-2.877-2.265.182-.961 1.458-1.458 2.513-1.493.292-.01.589.015.881.024.16.11.33.22.49.32zm-.70-2.9c-.924.255-1.946-.463-2.275-1.75-.36-1.412.012-2.308.883-2.579 1.031-.321 2.132.609 2.384 2.134.18 1-.08 1.95-.98 2.2z"/><polygon points="122 131 123 131 123 129 125 129 125 128 123 128 123 126 122 126 122 128 120 128 120 129 122 129"/><polygon points="202 217 200 217 200 215 199 215 199 217 197 217 197 218 199 218 199 220 200 220 200 218 202 218"/></g><g fill="#333"><circle cy="524" cx="184" r="4"/><circle cy="524" cx="170" r="4"/><circle cy="524" cx="198" r="4"/></g><g fill="#fff" clip-rule="evenodd" fill-rule="evenodd"><polygon points="7 1 1 7 1 8 7 8"/><polygon points="6 15 6 9 0 15"/><path d="m106 6.5h-1.104c-.609 0-1.579-.475-2.164-1.061l-3.672-3.672c-.585-.585-1.536-.585-2.121 0l-3.672 3.672c-.593.586-1.562 1.061-2.171 1.061s-1.104 0-1.104 0v4.5h16v-4.5z"/><path d="m77 39c4.418 0 8-3.582 8-8s-3.582-8-8-8-8 3.582-8 8 3.582 8 8 8zm0-15c3.86 0 7 3.14 7 7s-3.14 7-7 7-7-3.14-7-7 3.14-7 7-7z"/><circle cy="32" cx="77" r="1"/><circle cy="29" cx="77" r="1"/><circle cy="29" cx="80" r="1"/><circle cy="29" cx="74" r="1"/><circle cy="35" cx="77" r="1"/><path d="m77 69c4.418 0 8-3.582 8-8s-3.582-8-8-8-8 3.582-8 8 3.582 8 8 8zm0-15c3.86 0 7 3.14 7 7s-3.14 7-7 7-7-3.14-7-7 3.14-7 7-7z"/><circle cy="62" cx="77" r="1"/><circle cy="59" cx="77" r="1"/><circle cy="59" cx="80" r="1"/><circle cy="59" cx="74" r="1"/><circle cy="65" cx="77" r="1"/><path d="m99 31c0 4.418 3.582 8 8 8 1.8 0 3.455-.602 4.792-1.604l3.21 1.604-1.604-3.208c1-1.337 1.6-2.992 1.6-4.792 0-4.418-3.582-8-8-8s-8 3.582-8 8zm8-7c3.86 0 7 3.14 7 7 0 1.517-.486 2.967-1.404 4.191-.228.303-.264.708-.095 1.047l.263.525-.525-.263c-.142-.071-.295-.105-.447-.105-.212 0-.424.068-.6.2-1.22.919-2.67 1.405-4.19 1.405-3.86 0-7-3.14-7-7s3.14-7 7-7z"/><circle cy="31" cx="107" r="1"/><circle cy="31" cx="111" r="1"/><circle cy="31" cx="103" r="1"/><path d="m132 35h10c1.304 0 2.403-.837 2.816-2h2.18v-1h-2v-2h2v-1h-2.184c-.414-1.163-1.512-2-2.816-2h-10c-1.657 0-3 1.343-3 3v2c0 1.657 1.34 3 3 3zm-2-5c0-1.103.897-2 2-2h10c.737 0 1.375.405 1.722 1h-.72c-.758 0-1.41.428-1.75 1.051-.08-.022-.16-.051-.25-.051-.552 0-1 .448-1 1s.448 1 1 1 1-.448 1-1 .448-1 1-1h1v2c0 1.103-.897 2-2 2h-10c-1.103 0-2-.897-2-2v-2z"/><path d="m160 36h14c.393 0 .749-.229.911-.587s.1-.776-.158-1.072l-7-8c-.19-.216-.46-.341-.75-.341s-.562.125-.752.341l-7 8c-.258.295-.32.714-.158 1.072s.52.587.91.587zm7-9l7 8h-14l7-8z"/><circle cy="297" cx="48" r="6"/><circle cy="297" cx="71" r="6"/><circle cy="297" cx="25" r="6"/><rect height="40" width="1" y="355"/><rect height="40" width="1" y="355" x="2"/><rect height="40" width="1" y="355" x="12"/><rect height="40" width="1" y="355" x="14"/><rect height="40" width="1" y="355" x="16"/><rect height="40" width="1" y="355" x="23"/><rect height="40" width="1" y="355" x="37"/><rect height="40" width="1" y="355" x="40"/><rect height="40" width="1" y="355" x="45"/><rect height="40" width="1" y="355" x="48"/><rect height="40" width="1" y="355" x="55"/><rect height="40" width="1" y="355" x="57"/><rect height="40" width="1" y="355" x="64"/><rect height="40" width="1" y="355" x="66"/><rect height="40" width="1" y="355" x="68"/><rect height="40" width="1" y="355" x="72"/><rect height="40" width="1" y="355" x="74"/><rect height="40" width="1" y="355" x="76"/><rect height="40" width="1" y="355" x="79"/><rect height="40" width="1" y="355" x="83"/><rect height="40" width="1" y="355" x="86"/><rect height="40" width="1" y="355" x="89"/><rect height="40" width="1" y="355" x="91"/><rect height="40" width="1" y="355" x="94"/><rect height="40" width="1" y="355" x="25"/><rect height="40" width="1" y="355" x="27"/><rect height="40" width="2" y="355" x="4"/><rect height="40" width="2" y="355" x="18"/><rect height="40" width="2" y="355" x="34"/><rect height="40" width="2" y="355" x="42"/><rect height="40" width="3" y="355" x="7"/><rect height="40" width="3" y="355" x="30"/><rect height="40" width="3" y="355" x="50"/><rect height="40" width="3" y="355" x="60"/><path d="m165 259h-68v136h68v-136zm-2 102c0 17.673-14.327 32-32 32s-32-14.327-32-32 14.327-32 32-32c7.205 0 13.852 2.382 19.2 6.4l12.8-6.4-6.4 12.8c4.02 5.35 6.4 12 6.4 19.2zm0-36l-12.8-6.4c-5.348 4.018-11.996 6.4-19.2 6.4-17.673 0-32-14.327-32-32s14.327-32 32-32 32 14.327 32 32c0 7.205-2.382 13.852-6.4 19.2l6.4 12.8z"/><path opacity=".8" d="m145 426c0-8.284-6.716-15-15-15s-15 6.716-15 15c0 4.142 1.679 7.892 4.394 10.606l1.418-1.418c-2.35-2.36-3.81-5.61-3.81-9.19 0-7.168 5.832-13 13-13s13 5.832 13 13c0 3.584-1.458 6.834-3.812 9.188l1.418 1.418c2.71-2.72 4.39-6.47 4.39-10.61z"/><path opacity=".8" d="m137.07 433.07c1.811-1.811 2.932-4.311 2.932-7.068 0-5.514-4.486-10-10-10s-10 4.486-10 10c0 2.757 1.122 5.257 2.932 7.068l1.414-1.414c-1.44-1.45-2.34-3.45-2.34-5.66 0-4.411 3.589-8 8-8s8 3.589 8 8c0 2.206-.897 4.206-2.346 5.654l1.42 1.42z"/><path opacity=".8" d="m133.53 429.53c.906-.905 1.466-2.155 1.466-3.534 0-2.757-2.243-5-5-5s-5 2.243-5 5c0 1.378.561 2.628 1.466 3.534l1.414-1.414c-.543-.543-.88-1.293-.88-2.12 0-1.654 1.346-3 3-3s3 1.346 3 3c0 .827-.336 1.577-.88 2.12l1.41 1.41z"/><path opacity=".8" d="m93 426c0-.552-.448-1-1-1h-11v-11c0-.552-.448-1-1-1s-1 .448-1 1v11h-11c-.552 0-1 .448-1 1s.448 1 1 1h11v11c0 .552.448 1 1 1s1-.448 1-1v-11h11c.552 0 1-.45 1-1z"/><path opacity=".8" d="m139 476c0-7.18-5.82-13-13-13s-13 5.82-13 13 5.82 13 13 13 13-5.82 13-13zm-20 0c0-3.866 3.135-7 7-7s7 3.134 7 7-3.135 7-7 7c-3.86 0-7-3.13-7-7z"/><circle opacity=".8" cy="471" cx="144" r="3"/><circle opacity=".8" cy="481" cx="144" r="3"/><path opacity=".8" d="m180 461c-8.284 0-15 6.716-15 15s6.716 15 15 15 15-6.716 15-15-6.72-15-15-15zm5 10c1.105 0 2 .896 2 2 0 1.105-.895 2-2 2-1.104 0-2-.895-2-2 0-1.1.90-2 2-2zm-10 0c1.105 0 2 .896 2 2 0 1.105-.895 2-2 2-1.104 0-2-.895-2-2 0-1.1.90-2 2-2zm5 17c-6.281 0-11.45-4.851-11.959-11.002-.04-.55.41-1 .96-1s.995.448 1.049.998c.502 5.047 4.773 9.002 9.951 9.002s9.449-3.955 9.951-9.002c.055-.55.497-.998 1.049-.998s1.004.447.959.998c-.51 6.15-5.68 11-11.96 11z"/><path opacity=".8" d="m169.39 440.61l10.61-10.61-10.606-10.606c-5.85 5.86-5.85 15.36 0 21.22z"/><path opacity=".8" d="m76.677 515.6c-.249 0-.449.199-.456.452l-.24 9.185.241 4.285c.005.251.206.45.456.45.248 0 .448-.199.455-.454v.005l.271-4.287-.271-9.184c-.007-.25-.208-.45-.456-.45z"/><path opacity=".8" d="m66.548 520.45c-.129 0-.233.104-.244.24l-.365 4.538.365 4.39c.011.136.115.238.244.238.126 0 .231-.102.243-.238l.415-4.39-.415-4.539c-.012-.13-.117-.24-.243-.24z"/><path opacity=".8" d="m71.553 516.47c-.188 0-.341.153-.35.347l-.302 8.415.303 4.397c.008.193.162.345.349.345.186 0 .34-.152.349-.346l.343-4.396-.343-8.415c-.009-.20-.163-.35-.349-.35z"/><path opacity=".8" d="m69.871 518.07c-.167 0-.306.137-.314.311l-.324 6.848.324 4.426c.009.173.147.31.314.31.165 0 .303-.138.313-.311v.001l.367-4.426-.367-6.848c-.010-.17-.148-.31-.313-.31z"/><path opacity=".8" d="m64.906 520.61c-.11 0-.197.086-.208.204l-.388 4.417.388 4.255c.01.118.097.203.208.203.107 0 .194-.084.207-.203l.44-4.255-.439-4.417c-.013-.10-0.1-.19-.208-.19z"/><path opacity=".8" d="m68.203 520.75c-.15 0-.27.118-.279.275l-.345 4.209.345 4.426c.009.155.128.273.279.273.147 0 .266-.118.278-.273l.391-4.426-.391-4.211c-.011-.16-.130-.27-.278-.27z"/><path opacity=".8" d="m73.247 515.74c-.209 0-.377.167-.385.382 0 .001-.281 9.117-.281 9.117l.281 4.353c.008.212.176.38.385.38.208 0 .376-.168.385-.381l.318-4.352-.318-9.117c-.008-.22-.177-.38-.385-.38z"/><path opacity=".8" d="m63.277 521.34c-.086 0-.159.07-.172.166 0 .001-.406 3.723-.406 3.723l.406 3.641c.012.098.084.168.172.168.087 0 .158-.069.172-.168l.464-3.641-.464-3.723c-.014-.10-.084-.17-.172-.17z"/><path opacity=".8" d="m61.746 522.77c-.087 0-.155.066-.166.162l-.303 2.302.303 2.264c.011.095.079.162.166.162.083 0 .151-.067.165-.162l.359-2.264-.359-2.302c-.014-.10-.082-.16-.165-.16z"/><path opacity=".8" d="m80.161 514.18c-.286 0-.522.235-.526.524l-.198 10.527c0 .007.198 4.232.198 4.232.004.287.24.521.526.521s.521-.234.526-.523l.222-4.227-.222-10.531c-.005-.28-.241-.52-.526-.52z"/><path opacity=".8" d="m97.626 519.8c-.698 0-1.365.142-1.972.396-.406-4.595-4.258-8.199-8.958-8.199-1.149 0-2.271.227-3.261.61-.384.148-.486.301-.491.599v16.181c.005.312.246.571.551.603.012 0 14.04.01 14.131.01 2.815 0 5.098-2.282 5.098-5.099 0-2.82-2.28-5.1-5.094-5.1z"/><path opacity=".8" d="m74.956 515.39c-.229 0-.413.182-.42.417l-.26 9.424.262 4.326c.005.232.19.416.418.416s.412-.184.419-.416v-.001l.294-4.324-.294-9.425c-.006-.24-.191-.43-.419-.43z"/><path opacity=".8" d="m78.413 515.9c-.27 0-.487.214-.491.487l-.22 8.849.22 4.258c.004.271.221.484.491.484.269 0 .484-.213.49-.488v.003l.246-4.257-.246-8.85c-.006-.27-.221-.48-.490-.48z"/><path opacity=".8" d="m81.902 513.19c-.307 0-.559.252-.562.56l-.231 11.485.231 4.168c.004.305.256.556.562.556.305 0 .556-.251.56-.56v.005l.25-4.169-.25-11.486c-.004-.31-.254-.57-.560-.57z"/><path opacity=".8" d="m149.31 511.83c-1.292-1.355-2.74-1.355-3.401-1.44-4.765-.342-11.903-.342-11.903-.342h-.008s-7.138 0-11.903.342c-.661.085-2.109.085-3.41 1.44-1.012 1.036-1.339 3.37-1.339 3.37s-.35 2.75-.35 5.51v2.577c0 2.748.347 5.504.347 5.504s.327 2.336 1.339 3.379c1.3 1.354 3.005 1.308 3.752 1.447 2.718.266 11.561.342 11.561.342s7.146-.008 11.911-.358c.662-.078 2.109-.078 3.401-1.431 1.021-1.043 1.347-3.379 1.347-3.379s.342-2.756.342-5.504v-2.577c0-2.756-.342-5.512-.342-5.512s-.33-2.34-1.35-3.37zm-18.81 14.58v-9.551l9.178 4.799-9.18 4.75z"/><path opacity=".8" d="m40 509h-20c-1.656 0-3 1.343-3 3v19.999c0 1.657 1.343 3.001 3 3.001h20c1.657 0 3-1.344 3-3.001v-20c0-1.66-1.343-3-3-3zm-10 8c2.762 0 5 2.238 5 5 0 2.761-2.239 5-5 5s-5-2.239-5-5c0-2.76 2.238-5 5-5zm10 14c0 .552-.448.999-1.001.999h-17.999c-.553 0-1.001-.447-1.001-.999v-11.001h2.264c-.165.64-.263 1.31-.263 2 0 4.418 3.582 8 8 8s8-3.582 8-8c0-.692-.098-1.361-.262-2.001h2.262v11zm0-15c0 .552-.448 1-1.001 1h-2.999c-.553 0-1-.448-1-1v-3c0-.553.447-1 1-1h3c.553 0 1.001.447 1.001 1v3z"/></g><g fill="#fff"><path opacity=".6" d="m190.25 419.05c-5.88-5.508-15.114-5.392-20.854.348l10.6 10.6 10.253-10.253c.20-.20.20-.52 0-.70z"/><path opacity=".6" d="m190.25 440.95c.202-.188.201-.506.006-.701l-10.26-10.25-10.606 10.606c5.74 5.74 14.98 5.85 20.86.34z"/><path opacity=".8" d="m91.565 463h-23.13c-.792 0-1.435.642-1.435 1.435v23.131c0 .792.642 1.435 1.435 1.435h12.453v-10.068h-3.389v-3.924h3.389v-2.894c0-3.359 2.05-5.187 5.046-5.187 1.436 0 2.668.107 3.028.154v3.509l-2.078.001c-1.629 0-1.944.774-1.944 1.911v2.505h3.886l-.505 3.924h-3.38v10.08h6.626c.792 0 1.435-.642 1.435-1.435v-23.131c-.002-.79-.644-1.43-1.437-1.43z"/><path opacity=".8" d="m46.496 466.08c-1.176.522-2.442.875-3.771 1.034 1.356-.812 2.397-2.099 2.886-3.631-1.268.752-2.672 1.298-4.168 1.592-1.195-1.275-2.903-2.072-4.791-2.072-3.625 0-6.563 2.939-6.563 6.563 0 .514.057 1.016.169 1.496-5.455-.274-10.292-2.887-13.529-6.857-.565.969-.889 2.097-.889 3.299 0 2.277 1.159 4.286 2.92 5.463-1.075-.034-2.086-.33-2.973-.821v.083c0 3.18 2.262 5.832 5.265 6.436-.55.15-1.13.23-1.729.23-.423 0-.833-.042-1.233-.118.833 2.608 3.258 4.505 6.13 4.558-2.245 1.76-5.076 2.81-8.15 2.81-.531 0-1.054-.031-1.566-.091 2.905 1.862 6.354 2.948 10.061 2.948 12.073 0 18.675-10.002 18.675-18.675 0-.285-.006-.568-.019-.85 1.282-.92 2.395-2.08 3.275-3.39z"/><path opacity=".8" d="m38 417c-3.077 0-5.79 1.546-7.413 3.901.425.713.767 1.479 1.005 2.292 1.084-2.46 3.547-4.19 6.408-4.19 3.86 0 7 3.14 7 7s-3.14 7-7 7-7-3.14-7-7c0-4.971-4.029-9-9-9s-9 4.029-9 9 4.029 9 9 9c3.077 0 5.79-1.546 7.413-3.901-.425-.713-.767-1.479-1.005-2.292-1.084 2.46-3.547 4.19-6.408 4.19-3.86 0-7-3.14-7-7s3.14-7 7-7 7 3.14 7 7c0 4.971 4.029 9 9 9s9-4.029 9-9-4.029-9-9-9z"/><path opacity=".8" d="m20.383 150.42c-.543.241-1.127.404-1.74.477.626-.375 1.106-.969 1.332-1.676-.585.347-1.233.599-1.924.735-.552-.589-1.34-.957-2.211-.957-1.673 0-3.029 1.356-3.029 3.029 0 .237.026.469.078.69-2.518-.126-4.75-1.333-6.244-3.165-.261.447-.41.968-.41 1.523 0 1.051.535 1.978 1.348 2.521-.496-.016-.963-.152-1.372-.379v.038c0 1.468 1.044 2.692 2.43 2.97-.254.069-.521.106-.798.106-.195 0-.385-.019-.569-.054.385 1.204 1.504 2.079 2.829 2.104-1.036.812-2.343 1.297-3.762 1.297-.245 0-.486-.014-.723-.042 1.34.85 2.932 1.35 4.643 1.35 5.572 0 8.619-4.616 8.619-8.619 0-.131-.003-.262-.009-.392.592-.43 1.106-.96 1.512-1.57z"/><path opacity=".8" d="m44.338 149h-10.676c-.366 0-.662.296-.662.662v10.676c0 .366.296.662.662.662h5.748v-4.647h-1.564v-1.811h1.564v-1.335c0-1.55.946-2.394 2.329-2.394.663 0 1.231.049 1.397.071v1.62h-.959c-.752 0-.897.357-.897.882v1.156h1.793l-.233 1.811h-1.56v4.65h3.058c.366 0 .662-.296.662-.662v-10.676c0-.36-.296-.66-.662-.66z"/></g><g opacity=".8"><path d="m67.815 149h-5.63c-.379 0-.685.306-.685.685v5.616c0 .378.306.684.685.684h2.596c-.018.668-.296 1.395-.698 2.041-.452.726-1.415 1.529-1.424 1.537-.075.073-.131.157-.132.275-.001.089.045.159.096.231l1.811 2.042s.088.093.161.11c.082.02.175.022.239-.028 3.135-2.424 3.588-5.464 3.667-7.11v-5.398c-.001-.37-.307-.68-.686-.68" fill="#fff"/></g><path opacity=".8" d="m86.313 150.71h1.314c.075 0 .136-.061.136-.136 0 0-.016-1.127-.016-1.44v-.004c0-.257.054-.481.148-.669l.045-.084c-.004 0-.009.003-.015.008l-2.553 2.532c-.005.004-.008.009-.009.015.052-.026.125-.062.135-.066.223-.10.492-.16.815-.16zm10.224-.27c-.104-.558-.436-.834-.737-.943-.324-.117-.98-.238-1.806-.335-.665-.078-1.445-.072-1.917-.057-.057-.388-.329-.742-.633-.865-.811-.326-2.062-.247-2.384-.157-.255.071-.538.217-.696.443-.105.149-.173.343-.174.613 0 .152.004.511.008.831.004.321.008.607.008.609 0 .285-.231.517-.517.518h-1.314c-.28 0-.495.047-.659.121-.164.075-.279.175-.367.293-.176.236-.207.526-.206.823 0 0 .002.242.061.712.048.362.442 2.899.816 3.67.145.3.241.426.526.558.635.272 2.085.574 2.765.661.678.087 1.104.269 1.358-.262.001-.002.051-.133.119-.325.22-.667.251-1.26.251-1.688 0-.043.064-.045.064 0 0 .303-.058 1.374.751 1.661.319.114.981.214 1.655.293.609.07 1.05.31 1.05 1.871 0 .95-.2 1.081-1.243 1.081-.845 0-1.167.021-1.167-.65 0-.543.537-.486.935-.486.178 0 .049-.132.049-.467 0-.333.208-.525.011-.531-1.376-.038-2.186-.001-2.186 1.72 0 1.562.598 1.853 2.552 1.853 1.531 0 2.071-.051 2.704-2.012.125-.388.427-1.569.61-3.554.116-1.24-.108-5.03-.287-5.98zm-2.669 4.18c-.189-.006-.372.006-.541.033.047-.386.207-.859.771-.839.625.021.712.611.714 1.011-.263-.11-.589-.18-.944-.20z" fill="#fff"/><g opacity=".8" fill="#fff"><path d="m118.68 149h-3.907c-1.292 0-2.457.625-2.98 1.75-.241.519-.337 1.18-.183 1.813.305 1.248 1.607 2.073 2.872 1.882.138-.021.184-.065.111.063-.279.49-.075 1.225.473 1.585-.364-.026-.75-.034-1.184.017-1.546.181-3.258.975-3.169 2.643.069 1.291 1.374 2.239 3.443 2.248 1.666-.006 3.234-.533 3.893-1.713.69-1.236.283-2.516-.759-3.296-.476-.356-1.299-.847-1.247-1.521.018-.231.182-.472.506-.662.57-.334.958-.774 1.15-1.284.203-.542.175-1.13-.025-1.66-.188-.498-.528-.945-.972-1.255h1.052l.94-.60zm-2.62 7.85c.908.575 1.197 1.277 1.124 1.926-.089.782-.839 1.398-2.125 1.477-1.372.083-3.219-.46-2.877-2.265.182-.961 1.458-1.458 2.513-1.493.292-.01.589.015.881.024.16.11.33.22.49.32zm-.70-2.9c-.924.255-1.946-.463-2.275-1.75-.36-1.412.012-2.308.883-2.579 1.031-.321 2.132.609 2.384 2.134.18 1-.08 1.95-.98 2.2z"/><polygon points="123 154 123 152 122 152 122 154 120 154 120 155 122 155 122 157 123 157 123 155 125 155 125 154"/></g><g fill="#fff"><path opacity=".8" d="m39.923 558.35l-18.456 5.985c-1.82.59-2.44 2.363-1.387 3.959l8.451 12.829c1.052 1.596 2.63 1.521 3.525-.169l10.377-19.616c1.343-2.53.217-3.87-2.51-2.99z"/><circle opacity=".8" cy="556.75" cx="18.75" r="3.75"/><path opacity=".8" d="m142.29 144.29c-.391.391-.391 1.023 0 1.414l7 7c.195.195.451.293.707.293s.512-.098.707-.293l7-7c.391-.391.391-1.023 0-1.414s-1.023-.391-1.414 0l-5.3 5.3v-13.59c0-.553-.447-1-1-1s-1 .447-1 1v13.586l-5.293-5.293c-.39-.40-1.03-.40-1.42-.01z" fill-rule="evenodd" clip-rule="evenodd"/><path opacity=".8" d="m160.5 155h-21c-.829 0-1.5.671-1.5 1.5s.671 1.5 1.5 1.5h21c.829 0 1.5-.671 1.5-1.5s-.67-1.5-1.5-1.5zm0 2.5h-10.389c.239-.266.389-.614.389-1s-.15-.734-.389-1h10.39c.551 0 1 .449 1 1s-.45 1-1 1z"/></g><g fill="#39f"><path d="m40 9h-2v-2h2v-1h-2.184c-.413-1.163-1.512-2-2.816-2h-7c-1.657 0-3 1.343-3 3v2c0 1.657 1.343 3 3 3h7c1.304 0 2.403-.837 2.816-2h2.184v-1zm-3 0c0 1.103-.897 2-2 2h-7c-1.103 0-2-.897-2-2v-2c0-1.103.897-2 2-2h7c.748 0 1.394.417 1.736 1.027-.644.086-1.187.476-1.486 1.024-.082-.022-.161-.051-.250-.051-.552 0-1 .448-1 1s.448 1 1 1 1-.448 1-1 .448-1 1-1v2z"/><path d="m49 15c1.575 0 3.023-.526 4.192-1.404l2.808 1.404-1.404-2.808c.878-1.169 1.404-2.617 1.404-4.192 0-3.866-3.134-7-7-7s-7 3.134-7 7 3.134 7 7 7zm0-13c3.313 0 6 2.687 6 6s-2.687 6-6 6-6-2.687-6-6 2.687-6 6-6z"/><circle cy="8" cx="49" r="1"/><circle cy="8" cx="46" r="1"/><circle cy="8" cx="52" r="1"/><path d="m64 13c1.295 0 2.492-.415 3.473-1.113l2.82 2.82c.391.391 1.024.391 1.415 0s.391-1.024 0-1.415l-2.82-2.82c.697-.980 1.112-2.177 1.112-3.472 0-3.313-2.687-6-6-6s-6 2.687-6 6 2.687 6 6 6zm0-11c2.757 0 5 2.243 5 5s-2.243 5-5 5-5-2.243-5-5 2.243-5 5-5z"/><path d="m84.25 4.25c-1.01 0-1.923.404-2.598 1.054.202.291.368.605.501.938.504-.601 1.252-.991 2.096-.991 1.518-.001 2.751 1.232 2.751 2.749s-1.233 2.75-2.75 2.75-2.75-1.233-2.75-2.75c0-2.071-1.679-3.75-3.75-3.75s-3.75 1.679-3.75 3.75 1.679 3.75 3.75 3.75c1.01 0 1.923-.404 2.598-1.054-.202-.291-.368-.605-.501-.938-.505.601-1.252.991-2.097.991-1.517.001-2.75-1.232-2.75-2.749s1.233-2.75 2.75-2.75 2.75 1.233 2.75 2.75c0 2.071 1.679 3.75 3.75 3.75s3.75-1.679 3.75-3.75-1.679-3.75-3.75-3.75z"/><path d="m93.621 5.793l3.672-3.672c.39-.39 1.024-.39 1.414 0l3.672 3.672c.69.688 1.77 1.207 2.52 1.207h1.1v-1h-1.104c-.424 0-1.272-.375-1.811-.914l-3.672-3.672c-.779-.78-2.049-.78-2.828 0l-3.672 3.672c-.543.539-1.391.914-1.814.914h-1.104v1h1.104c.747 0 1.829-.519 2.517-1.207z"/><path d="m115 1c-3.866 0-7 3.134-7 7s3.134 7 7 7 7-3.134 7-7-3.13-7-7-7zm0 13c-3.309 0-6-2.691-6-6s2.691-6 6-6 6 2.691 6 6-2.69 6-6 6z"/><circle cy="5" cx="115" r="1"/><path d="m115 7c-.552 0-1 .448-1 1v3c0 .552.448 1 1 1s1-.448 1-1v-3c0-.552-.45-1-1-1z"/><path d="m52.292 67.707c.391.391 1.024.391 1.415 0s.391-1.024 0-1.415l-2.82-2.82c.698-.980 1.113-2.177 1.113-3.472 0-3.313-2.687-6-6-6s-6 2.687-6 6 2.687 6 6 6c1.295 0 2.492-.415 3.473-1.113l2.819 2.82zm-11.292-7.707c0-2.757 2.243-5 5-5s5 2.243 5 5-2.243 5-5 5-5-2.243-5-5z"/><path d="m71 96c0-.552-.448-1-1-1h-17.586l8.293-8.293c.391-.391.391-1.023 0-1.414s-1.023-.391-1.414 0l-10 10c-.391.391-.391 1.023 0 1.414l10 10c.195.19.451.29.707.29s.512-.098.707-.293c.391-.391.391-1.023 0-1.414l-8.293-8.3h17.586c.552 0 1-.448 1-1z"/><path d="m140.71 85.293c-.20-.195-.45-.293-.71-.293s-.512.098-.707.293c-.391.391-.391 1.023 0 1.414l8.3 8.293h-17.59c-.552 0-1 .448-1 1s.448 1 1 1h17.586l-8.293 8.293c-.391.391-.391 1.023 0 1.414s1.023.391 1.414 0l10-10c.391-.391.391-1.023 0-1.414l-10-9.993z"/><path d="m169.71 94.293c-.391-.391-1.023-.391-1.414 0s-.391 1.023 0 1.414l5.293 5.293h-11.59c-.552 0-1 .448-1 1s.448 1 1 1h11.586l-5.293 5.293c-.391.391-.391 1.023 0 1.414.195.195.451.293.707.293s.512-.098.707-.293l7-7c.391-.391.391-1.023 0-1.414l-7.01-6.997z"/><polygon points="9.707 67 15 61.707 20.293 67 21 66.293 15.707 61 21 55.707 20.293 55 15 60.293 9.707 55 9 55.707 14.293 61 9 66.293"/><path d="m12 7h1c1.104 0 2-.896 2-2v-1c0-1.104-.896-2-2-2h-1c-1.104 0-2 .896-2 2v1c0 1.104.896 2 2 2zm-1-3c0-.551.449-1 1-1h1c.551 0 1 .449 1 1v1c0 .551-.449 1-1 1h-1c-.551 0-1-.449-1-1v-1z"/><path d="m19 7h1c1.104 0 2-.896 2-2v-1c0-1.104-.896-2-2-2h-1c-1.104 0-2 .896-2 2v1c0 1.104.896 2 2 2zm-1-3c0-.551.449-1 1-1h1c.551 0 1 .449 1 1v1c0 .551-.449 1-1 1h-1c-.551 0-1-.449-1-1v-1z"/><path d="m19 14h1c1.104 0 2-.896 2-2v-1c0-1.104-.896-2-2-2h-1c-1.104 0-2 .896-2 2v1c0 1.104.896 2 2 2zm-1-3c0-.551.449-1 1-1h1c.551 0 1 .449 1 1v1c0 .551-.449 1-1 1h-1c-.551 0-1-.449-1-1v-1z"/><path d="m12 14h1c1.104 0 2-.896 2-2v-1c0-1.104-.896-2-2-2h-1c-1.104 0-2 .896-2 2v1c0 1.104.896 2 2 2zm-1-3c0-.551.449-1 1-1h1c.551 0 1 .449 1 1v1c0 .551-.449 1-1 1h-1c-.551 0-1-.449-1-1v-1z"/><path d="m191.5 114c-5.799 0-10.5 4.701-10.5 10.5s4.701 10.5 10.5 10.5 10.5-4.701 10.5-10.5-4.7-10.5-10.5-10.5zm0 20c-5.238 0-9.5-4.262-9.5-9.5s4.262-9.5 9.5-9.5 9.5 4.262 9.5 9.5-4.26 9.5-9.5 9.5z"/><polygon points="192 119 191 119 191 124 186 124 186 125 191 125 191 130 192 130 192 125 197 125 197 124 192 124"/><path d="m139.62 12.639c1.341.86 2.933 1.361 4.644 1.361 5.572 0 8.619-4.616 8.619-8.619 0-.131-.003-.262-.009-.392.592-.427 1.105-.961 1.512-1.568-.543.241-1.127.404-1.74.477.625-.375 1.106-.969 1.332-1.676-.585.347-1.233.599-1.923.735-.55-.589-1.34-.957-2.21-.957-1.672 0-3.029 1.356-3.029 3.029 0 .237.026.469.078.69-2.518-.127-4.75-1.333-6.244-3.165-.261.447-.41.968-.41 1.523 0 1.051.535 1.978 1.348 2.521-.496-.016-.963-.152-1.372-.379v.038c0 1.468 1.044 2.692 2.43 2.97-.254.07-.521.107-.798.107-.196 0-.385-.019-.569-.054.385 1.204 1.504 2.079 2.829 2.103-1.036.813-2.343 1.297-3.762 1.297-.25.001-.50-.013-.73-.041z"/><path d="m157.66 14h5.748v-4.647h-1.564v-1.811h1.564v-1.335c0-1.55.946-2.394 2.329-2.394.663 0 1.231.049 1.397.071v1.62h-.959c-.752 0-.897.357-.897.882v1.156h1.793l-.233 1.811h-1.56v4.647h3.058c.366 0 .662-.296.662-.662v-10.676c0-.366-.30-.662-.66-.662h-10.676c-.36 0-.66.296-.66.662v10.676c0 .366.30.662.66.662z"/><path d="m191.5 158c-5.799 0-10.5 4.701-10.5 10.5s4.701 10.5 10.5 10.5 10.5-4.701 10.5-10.5-4.7-10.5-10.5-10.5zm0 20c-5.238 0-9.5-4.262-9.5-9.5s4.262-9.5 9.5-9.5 9.5 4.262 9.5 9.5-4.26 9.5-9.5 9.5z"/><path d="m17.079 224.04c-3.064 0-6.525 1.444-9.03 3.902.974-.426 2.034-.635 3.117-.635 1.261 0 2.553.284 3.775.838-.046.239.027.526.194.693l4.032 4.032c.134.133.345.207.547.207.05 0 .099-.004.146-.014 1.031 2.272 1.126 4.784.203 6.893 2.506-2.554 3.958-6.101 3.901-9.209.824-.604 1.626-1.262 2.379-2.015 3.555-3.554 5.464-8.009 5.644-12.228.012-.276-.211-.499-.487-.487-4.219.18-8.674 2.089-12.228 5.644-.753.752-1.41 1.555-2.015 2.379-.059.02-.119.02-.178.02zm13.872-6.99c-.327 3.938-2.227 7.884-5.315 10.971-.642.643-1.382 1.269-2.263 1.916-.262.192-.414.5-.408.825.032 1.72-.439 3.56-1.301 5.257-.097-1.133-.395-2.276-.892-3.373-.165-.363-.494-.591-.873-.591-.04 0-.08.002-.121.008l-3.84-3.84c.035-.417-.195-.816-.583-.993-1.077-.489-2.227-.792-3.367-.892 1.644-.833 3.423-1.302 5.091-1.302l.16.001h.019c.318 0 .618-.151.806-.408.648-.883 1.275-1.624 1.916-2.264 3.086-3.1 7.033-5 10.971-5.33z"/><path d="m25 225.5c1.378 0 2.5-1.122 2.5-2.5s-1.122-2.5-2.5-2.5-2.5 1.122-2.5 2.5 1.122 2.5 2.5 2.5zm0-4.5c1.104 0 2 .896 2 2s-.896 2-2 2-2-.896-2-2 .896-2 2-2z"/><path d="m15.501 235h-2.501v-2.5c0-.805.389-1.515.982-1.972-1.667.138-2.981 1.52-2.981 3.223v3.25h3.25c1.703 0 3.084-1.314 3.223-2.982-.458.59-1.168.98-1.973.98z"/><path d="m61 220c-4.418 0-8 3.582-8 8s3.582 8 8 8 8-3.582 8-8-3.582-8-8-8zm-2.479 14.54c-2.032-.772-3.679-2.476-4.283-4.731-.604-2.256-.03-4.555 1.344-6.24.07-.085.192-.09.271-.012l3.284 3.284c.078.078.095.219.049.319-.189.41-.243.885-.117 1.355.125.47.409.854.777 1.114.09.064.146.194.117.301l-1.202 4.486c-.029.10-.136.16-.240.12zm9.38-7.67c.574 3.503-1.589 6.95-5.089 7.888-.99.266-1.987.296-2.938.139-.109-.018-.173-.122-.144-.229l1.202-4.486c.029-.107.141-.191.251-.199.111-.008.223-.024.334-.054.832-.223 1.393-.939 1.467-1.75.01-.11.095-.222.202-.251l4.486-1.203c.107-.03.211.03.229.14zm-7.901 1.13c0-.551.449-1 1-1s1 .449 1 1-.449 1-1 1-1-.45-1-1zm7.413-2.24l-4.486 1.203c-.107.029-.236-.026-.3-.117-.469-.664-1.313-1.003-2.144-.78-.112.03-.216.071-.316.12-.1.048-.239.031-.317-.047l-3.285-3.284c-.078-.078-.075-.2.01-.27.745-.612 1.624-1.083 2.614-1.349 3.5-.938 7.096.965 8.351 4.285.038.11-.020.21-.127.24z"/><path d="m73.806 227.47l-1.651-.275c-.109-.018-.204-.123-.214-.232-.025-.266-.058-.53-.101-.791-.018-.109.047-.233.147-.279l1.52-.692c.101-.046.159-.169.13-.276l-.155-.577c-.028-.107-.141-.185-.251-.174l-1.666.161c-.11.011-.229-.064-.267-.167-.093-.25-.195-.494-.306-.734-.046-.1-.016-.238.069-.308l1.295-1.067c.085-.07.109-.205.054-.3l-.3-.518c-.055-.096-.184-.142-.288-.103l-1.562.585c-.104.039-.238-.003-.302-.093-.155-.216-.318-.425-.488-.628-.071-.085-.077-.226-.013-.315l.974-1.364c.064-.09.053-.226-.025-.304l-.424-.423c-.078-.078-.214-.089-.304-.025l-1.363.973c-.09.064-.231.058-.316-.013-.203-.169-.412-.333-.627-.487-.09-.064-.133-.199-.094-.303l.585-1.563c.039-.104-.007-.232-.103-.287l-.52-.299c-.096-.055-.23-.03-.3.055l-1.064 1.293c-.07.085-.208.115-.308.069-.24-.11-.483-.212-.732-.305-.103-.039-.18-.158-.169-.268l.162-1.667c.01-.11-.067-.222-.174-.25l-.578-.154c-.107-.028-.23.03-.276.131l-.69 1.518c-.046.101-.17.166-.279.147-.261-.043-.524-.077-.791-.101-.11-.01-.214-.105-.232-.214l-.275-1.648c-.019-.13-.123-.22-.234-.22h-.6c-.111 0-.215.088-.233.197l-.275 1.648c-.018.109-.123.204-.232.214-.266.024-.53.058-.79.101-.109.018-.233-.047-.279-.147l-.689-1.518c-.046-.101-.169-.159-.276-.13l-.579.155c-.107.029-.185.141-.174.251l.162 1.664c.01.11-.064.229-.168.267-.249.093-.494.195-.734.306-.101.046-.238.016-.308-.069l-1.064-1.293c-.07-.085-.205-.109-.3-.054l-.52.3c-.096.055-.142.184-.103.288l.584 1.562c.039.104-.004.238-.094.303-.215.155-.424.318-.627.487-.084.071-.225.077-.315.013l-1.362-.974c-.09-.064-.226-.053-.304.025l-.424.424c-.078.078-.089.214-.025.304l.973 1.363c.064.09.057.231-.013.316-.169.203-.333.412-.487.626-.064.09-.199.133-.303.094l-1.562-.585c-.104-.039-.232.007-.288.103l-.3.52c-.055.096-.031.23.054.3l1.293 1.065c.085.07.115.208.069.308-.11.24-.212.484-.305.732-.039.104-.158.18-.268.169l-1.666-.162c-.11-.011-.222.067-.251.174l-.154.58c-.029.107.03.23.13.276l1.518.691c.101.046.166.17.147.279-.043.26-.077.523-.101.79-.01.11-.105.214-.214.232l-1.65.275c-.109.018-.197.122-.197.233l.001.599c0 .111.088.215.197.233l1.649.276c.109.018.204.122.214.232.024.266.058.528.101.788.018.109-.046.235-.147.281l-1.52.69c-.101.046-.159.169-.13.276l.156.578c.028.107.141.185.251.174l1.666-.161c.11-.01.229.065.268.169.093.248.194.491.304.73.046.1.016.239-.069.309l-1.295 1.066c-.085.07-.109.205-.054.3l.3.518c.055.096.184.142.288.104l1.563-.585c.104-.039.239.004.303.094.154.215.317.423.487.626.071.085.077.225.013.315l-.975 1.365c-.064.09-.053.226.025.304l.424.423c.078.078.214.089.304.025l1.365-.974c.09-.064.231-.058.315.013.203.169.412.332.627.487.089.064.132.199.093.302l-.586 1.564c-.039.104.007.232.103.287l.52.3c.096.055.23.03.3-.055l1.067-1.295c.07-.085.207-.115.308-.069.239.11.483.211.731.304.103.039.179.158.168.268l-.162 1.668c-.011.11.067.222.174.25l.579.155c.107.028.23-.03.276-.131l.692-1.52c.046-.101.17-.166.279-.147.26.043.523.076.789.101.11.01.213.105.231.214l.275 1.653c.018.109.122.197.233.197h.6c.111 0 .215-.089.233-.198l.276-1.651c.018-.109.122-.204.232-.214.265-.024.527-.058.787-.101.109-.018.235.047.281.147l.691 1.522c.046.101.169.159.276.13l.579-.156c.106-.029.184-.142.174-.251l-.161-1.667c-.01-.11.065-.229.169-.268.248-.093.491-.194.73-.304.1-.046.239-.016.309.069l1.067 1.297c.07.085.205.109.3.054l.519-.3c.095-.055.142-.184.103-.288l-.585-1.564c-.039-.104.004-.238.094-.303.215-.155.424-.318.627-.487.085-.071.225-.077.315-.013l1.366.976c.09.064.226.053.304-.025l.423-.424c.078-.078.089-.214.025-.304l-.974-1.365c-.064-.09-.058-.231.013-.316.169-.203.333-.412.487-.626.064-.089.199-.132.303-.093l1.565.586c.104.039.232-.007.287-.103l.299-.519c.055-.096.03-.23-.055-.3l-1.295-1.067c-.085-.07-.115-.208-.069-.308.11-.24.212-.483.305-.731.039-.104.158-.18.268-.169l1.668.161c.11.011.222-.067.25-.174l.154-.578c.028-.107-.03-.23-.131-.276l-1.52-.691c-.101-.046-.166-.17-.147-.279.043-.26.077-.524.101-.79.01-.11.105-.214.214-.232l1.652-.276c.109-.018.197-.122.197-.233l-.001-.598c.001-.11-.087-.21-.196-.23zm-12.806 9.53c-4.971 0-9-4.029-9-9s4.029-9 9-9 9 4.029 9 9-4.029 9-9 9z"/><path d="m144.05 172.69l-19.092 6.364c-.387.129-.657.479-.682.887-.019.292.091.57.291.769.079.079.172.146.276.195l8.291 3.966 3.966 8.291c.05.104.117.197.195.276.199.199.478.309.769.291.407-.025.758-.295.887-.682l6.364-19.092c.12-.359.026-.755-.242-1.023-.28-.28-.67-.37-1.03-.25zm-18.78 7.31l18.031-6.01-9.899 9.899-8.13-3.89zm12.73 12.73l-3.889-8.132 9.899-9.899-6.01 18.03z"/><path d="m164.38 204.08c-.12-.06-.25-.08-.38-.08-.26 0-.516.102-.707.293l-4.646 4.646c-.023.016-.119.056-.164.061h-5.48c-.552 0-1 .448-1 1v6c0 .552.448 1 1 1h5.5c.028.005.124.044.159.072l4.634 4.635c.19.20.45.30.71.30.129 0 .259-.025.383-.076.374-.155.617-.52.617-.924v-16c0-.40-.24-.77-.62-.92zm-.38 16.92l-4.646-4.646c-.195-.195-.577-.354-.854-.354h-5.5v-6h5.5c.276 0 .658-.158.854-.354l4.65-4.65v16z"/><polygon points="177.29 208 173 212.29 168.71 208 168 208.71 172.29 213 168 217.29 168.71 218 173 213.71 177.29 218 178 217.29 173.71 213 178 208.71"/><path d="m164.38 234.08c-.12-.06-.25-.08-.38-.08-.26 0-.516.102-.707.293l-4.646 4.646c-.023.016-.119.056-.164.061h-5.48c-.552 0-1 .448-1 1v6c0 .552.448 1 1 1h5.5c.028.005.124.044.159.072l4.634 4.635c.19.20.45.30.71.30.129 0 .259-.025.383-.076.374-.155.617-.52.617-.924v-16c0-.40-.24-.77-.62-.92zm-.38 16.92l-4.646-4.646c-.195-.195-.577-.354-.854-.354h-5.5v-6h5.5c.276 0 .658-.158.854-.354l4.65-4.65v16z"/><path d="m178 243c0-3.59-1.455-6.84-3.808-9.192l-.711.711c2.173 2.173 3.519 5.173 3.519 8.481s-1.346 6.309-3.519 8.481l.711.711c2.35-2.35 3.81-5.6 3.81-9.19z"/><path d="m171.36 249.36c1.63-1.629 2.639-3.879 2.639-6.361s-1.009-4.731-2.639-6.361l-.707.707c1.448 1.449 2.346 3.449 2.346 5.654s-.897 4.206-2.346 5.654l.71.71z"/><path d="m168.53 246.53c.906-.905 1.466-2.155 1.466-3.534s-.561-2.628-1.466-3.534l-.707.707c.724.725 1.173 1.725 1.173 2.827s-.449 2.103-1.173 2.827l.71.69z"/><path d="m183.29 13.034l-1.086-4.076c-.028-.107.018-.25.104-.319l3.274-2.66c.429-.348.329-.654-.222-.684l-4.213-.228c-.11-.006-.232-.094-.271-.197l-1.518-3.936c-.199-.515-.521-.515-.72 0l-1.518 3.936c-.04.103-.161.191-.271.197l-4.213.228c-.551.03-.651.336-.222.684l3.274 2.66c.086.069.132.212.104.319l-1.086 4.076c-.142.534.119.723.582.423l3.542-2.292c.093-.06.243-.06.336 0l3.542 2.292c.48 0.3.74.110.60-.423zm-3.58-2.709c-.208-.135-.454-.206-.711-.206s-.503.071-.711.206l-2.203 1.425.675-2.536c.13-.492-.047-1.036-.442-1.355l-2.034-1.653 2.621-.142c.506-.027.969-.363 1.151-.837l.94-2.447.945 2.449c.182.473.645.809 1.151.836l2.62.142-2.037 1.655c-.393.317-.57.861-.44 1.352l.676 2.537-2.2-1.426z"/><path d="m195.5 11.5c.128 0 .256-.049.354-.146l4.36-4.354-.71-.707-3.5 3.5v-8.793h-1v8.793l-3.5-3.5-.71.707 4.354 4.354c.10.097.23.146.36.146z"/><rect height="1" width="7" y="13" x="189"/><rect height="1" width="1" y="13" x="197"/><rect height="1" width="1" y="13" x="199"/><rect height="1" width="1" y="13" x="201"/><path d="m192 350c-4.418 0-8 3.582-8 8s3.582 8 8 8c1.8 0 3.455-.602 4.792-1.604l3.21 1.6-1.604-3.208c1-1.33 1.6-2.99 1.6-4.79 0-4.42-3.58-8-8-8zm-4 9c-.552 0-1-.448-1-1s.448-1 1-1 1 .448 1 1-.45 1-1 1zm4 0c-.552 0-1-.448-1-1s.448-1 1-1 1 .448 1 1-.45 1-1 1zm4 0c-.552 0-1-.448-1-1s.448-1 1-1 1 .448 1 1-.45 1-1 1z"/><path d="m191.92 315.71h-.998v4.577h.998c1.465 0 2.438-.823 2.438-2.276v-.025c0-1.43-.97-2.27-2.44-2.27z"/><path d="m192 309c-4.932 0-8.929 4.03-8.929 9 0 1.333.289 2.596.805 3.734l-1.48 3.653 3.832-.523c1.557 1.332 3.571 2.136 5.773 2.136 4.931 0 8.929-4.029 8.929-9 0-4.97-4-9-8.93-9zm4.88 8.97c0 2.597-1.857 4.526-5.04 4.526h-3.36v-9h3.411c3.158 0 4.989 1.852 4.989 4.449v.02z"/><circle cy="182" cx="194" r="1"/><circle cy="182.8" cx="191" r="1"/><circle cy="185" cx="188.8" r="1"/><circle cy="188" cx="188" r="1"/><circle cy="191" cx="188.8" r="1"/><circle cy="193.2" cx="191" r="1"/><circle cy="194" cx="194" r="1.001"/><circle cy="193.2" cx="197" r="1.001"/><circle cy="191" cx="199.2" r="1"/><circle cy="188" cx="200" r="1"/><circle cy="185" cx="199.2" r="1"/><circle cy="182.8" cx="197" r="1.001"/><path d="m199.29 236.71c-.391-.391-1.023-.391-1.414 0l-7.839 7.425c-.195.195-.452.555-.573.803l-1.833 3.761c-.093.192-.055.422.096.573.096.096.224.146.354.146.074 0 .149-.017.219-.05l3.761-1.833c.249-.121.608-.377.803-.573l7.839-7.425c.391-.391.391-1.023 0-1.414l-1.42-1.42zm-10.12 11.12l1.266-2.598 1.332 1.332-2.6 1.27z"/><path d="m178 354h-10c-.552 0-1 .448-1 1v7c0 .552.448 1 1 1h3v1c0 .552-.448 1-1 1h-1v1h8v-1h-1c-.552 0-1-.448-1-1v-1h3c.552 0 1-.448 1-1v-7c0-.55-.45-1-1-1zm0 7h-10v-6h10v6z"/><path d="m168.5 341c-.276 0-.5.224-.5.5h1c.148 0 .314-.058.472-.139-.06-.21-.24-.36-.47-.36h-.50z"/><path d="m178 342h-1c-.552 0-1.2-.4-1.447-.895l-.105-.211c-.24-.49-.89-.89-1.44-.89h-2c-.552 0-1.2.4-1.447.895l-.105.211c-.24.49-.89.89-1.44.89h-1c-.552 0-1 .448-1 1v5c0 .552.448 1 1 1h10c.552 0 1-.448 1-1v-5c0-.55-.45-1-1-1zm-5 6c-1.657 0-3-1.343-3-3s1.343-3 3-3 3 1.343 3 3-1.34 3-3 3z"/><circle cy="345" cx="173" r="2"/><path d="m178 290h-10c-.552 0-1 .448-1 1v10c0 .552.448 1 1 1h10c.552 0 1-.448 1-1v-10c0-.55-.45-1-1-1zm-2 1l1.5 1.5-1.5 1.5h-1.5l1.5-1.5-1.5-1.5h1.5zm-3 0l1.5 1.5-1.5 1.5h-1.5l1.5-1.5-1.5-1.5h1.5zm-3 0l1.5 1.5-1.5 1.5h-1.5l1.5-1.5-1.5-1.5h1.5zm-2 1l.5.5-.5.5v-1zm10 9h-10v-6h10v6zm0-7h-.5l.5-.5v.5zm0-2.5l-.5-.5h.5v.5z"/><circle cy="298" cx="173" r="1"/><circle cy="298" cx="170" r="1"/><circle cy="298" cx="176" r="1"/><path d="m178.86 307.21c-.76-.78-1.78-1.21-2.86-1.21-1.172 0-2.248.51-3 1.383-.752-.873-1.828-1.383-3-1.383-1.082 0-2.096.429-2.857 1.207-.091.093-.143.219-.143.35v9.5c0 .203.123.386.311.463.19.077.404.032.546-.113.571-.584 1.332-.905 2.143-.905 1.06 0 2.021.553 2.57 1.479.092.154.257.245.43.245s.338-.09.43-.245c.549-.926 1.51-1.479 2.57-1.479.811 0 1.571.321 2.143.905.143.145.356.189.546.113.188-.077.311-.26.311-.463v-9.5c0-.13-.05-.25-.14-.34zm-8.86 8.29c-.714 0-1.398.187-2 .537v-8.268c.552-.498 1.255-.769 2-.769 1.016 0 1.941.508 2.5 1.367v8.019c-.70-.57-1.57-.89-2.5-.89zm8 .54c-1.386-.807-3.27-.654-4.5.349v-8.019c.559-.858 1.484-1.367 2.5-1.367.745 0 1.448.271 2 .769v8.27z"/><path d="m176.52 322.14l-6.038 1.726c-.266.076-.481.361-.481.637v6c0 .276-.224.5-.5.5h-1.5c-.552 0-1 .448-1 1v1c0 .552.448 1 1 1h1.5c.829 0 1.5-.671 1.5-1.5v-5.786l5-1.429v3.214c0 .276-.224.5-.5.5h-1.5c-.552 0-1 .448-1 1v1c0 .552.448 1 1 1h1.5c.829 0 1.5-.671 1.5-1.5v-8c0-.28-.22-.44-.48-.36z"/><polygon points="107.79 219.5 100 227.29 92.207 219.5 91.5 220.21 99.293 228 91.5 235.79 92.207 236.5 100 228.71 107.79 236.5 108.5 235.79 100.71 228 108.5 220.21"/><polygon points="187.21 173.5 191.5 169.21 195.79 173.5 196.5 172.79 192.21 168.5 196.5 164.21 195.79 163.5 191.5 167.79 187.21 163.5 186.5 164.21 190.79 168.5 186.5 172.79"/><polygon points="202 247 200 247 200 245 199 245 199 247 197 247 197 248 199 248 199 250 200 250 200 248 202 248"/></g></svg>
